<?xml version="1.0" encoding="UTF-8" standalone="no"?>
<!-- Created with Inkscape (http://www.inkscape.org/) -->

<svg
   width="441"
   height="101"
   viewBox="0 0 441 101"
   version="1.1"
   id="svg1"
   xmlns="http://www.w3.org/2000/svg"
   xmlns:svg="http://www.w3.org/2000/svg"
   xmlns:rdf="http://www.w3.org/1999/02/22-rdf-syntax-ns#"
   xmlns:cc="http://creativecommons.org/ns#"
   xmlns:dc="http://purl.org/dc/elements/1.1/">
  <title
     id="title2">ZDA Works Logo 2024</title>
  <defs
     id="defs1" />
  <metadata
     id="metadata2">
    <rdf:RDF>
      <cc:Work
         rdf:about="">
        <dc:title>ZDA Works Logo 2024</dc:title>
      </cc:Work>
    </rdf:RDF>
  </metadata>
  <g
     id="g4"
     style="display:inline">
    <path
       id="path3"
       style="font-weight:bold;font-size:85.3333px;font-family:Urbanist;-inkscape-font-specification:'Urbanist Bold';letter-spacing:0px;display:inline;fill:#2284ff;fill-opacity:1"
       d="m 10.515625,20.632812 v 10.41211 h 34.261719 14.037109 v -10.41211 z m 56.832031,0 v 10.41211 h 10.410156 9.386719 22.566409 c -0.48093,-0.551794 -0.96303,-1.10321 -1.48828,-1.623047 -2.73067,-2.759104 -5.90319,-4.90541 -9.515629,-6.441406 -3.58399,-1.564442 -7.438065,-2.347656 -11.5625,-2.347657 z m 72.789064,0 -3.77734,10.41211 h 19.55273 l -3.78516,-10.41211 z m 136.8418,2.714844 c -3.53423,0 -6.85569,0.710243 -9.9668,2.128906 -3.11111,1.393777 -5.85042,3.335335 -8.21484,5.824219 -2.36445,2.488886 -4.21852,5.374827 -5.5625,8.660157 -1.344,3.260438 -2.01563,6.756907 -2.01563,10.490234 0,2.82691 0.38955,5.525661 1.16016,8.095703 h 5.53906 c -0.97186,-2.530802 -1.47266,-5.22588 -1.47266,-8.095703 0,-2.961773 0.52303,-5.760218 1.56836,-8.398438 1.07022,-2.638217 2.53763,-4.966425 4.4043,-6.982422 1.89156,-2.015996 4.07117,-3.595347 6.53515,-4.740234 2.48889,-1.169776 5.16317,-1.755859 8.0254,-1.755859 2.83732,0 5.48912,0.571909 7.95312,1.716797 2.48889,1.144886 4.66655,2.72619 6.5332,4.742187 1.89156,1.991108 3.37118,4.317362 4.44141,6.980469 1.07022,2.638218 1.60547,5.450838 1.60547,8.4375 0,2.849327 -0.50755,5.54583 -1.49805,8.095703 h 5.56641 c 0.7706,-2.570037 1.1582,-5.268799 1.1582,-8.095703 0,-3.733327 -0.67164,-7.229796 -2.01562,-10.490234 -1.31912,-3.28533 -3.16096,-6.171271 -5.52539,-8.660157 -2.36444,-2.488884 -5.10179,-4.430442 -8.21289,-5.824219 -3.11112,-1.418663 -6.44676,-2.128906 -10.00586,-2.128906 z m 133.54101,0.1875 c -3.31022,0 -6.39559,0.608571 -9.25781,1.828125 -2.83733,1.219555 -5.12692,2.937236 -6.86914,5.152344 -1.74223,2.215108 -2.61328,4.828292 -2.61328,7.839844 0,3.210662 0.82022,5.799405 2.46289,7.765625 1.64266,1.94133 3.87115,3.447357 6.68359,4.517578 2.83734,1.07022 6.03465,1.916841 9.59375,2.539062 2.26489,0.398223 4.43033,0.970132 6.49609,1.716797 2.09067,0.721778 3.79613,1.716998 5.11524,2.986328 0.21586,0.207714 0.38587,0.439641 0.56641,0.666016 h 5.92382 c -0.4349,-1.175458 -1.06108,-2.248097 -1.89843,-3.205078 -1.74223,-2.015997 -4.04405,-3.619788 -6.90625,-4.814453 -2.86223,-1.219554 -5.96177,-2.11701 -9.29688,-2.689453 -2.56355,-0.472889 -4.86536,-1.008137 -6.90625,-1.605469 -2.04088,-0.597334 -3.65886,-1.492835 -4.85351,-2.6875 -1.16978,-1.219554 -1.75391,-2.949457 -1.75391,-5.189453 0,-1.916442 0.63496,-3.583289 1.9043,-5.001953 1.26932,-1.443554 2.92395,-2.562933 4.96484,-3.359375 2.06578,-0.821331 4.28009,-1.2202 6.64453,-1.195313 2.06578,0 4.07039,0.299153 6.01172,0.896484 1.94134,0.572445 3.63457,1.417111 5.07813,2.53711 1.46843,1.095109 2.47588,2.428095 3.02343,3.996094 l 4.96485,-1.792969 C 428.72654,32.095995 427.2958,30.117775 425.30469,28.5 c -1.96622,-1.617775 -4.2436,-2.849092 -6.83203,-3.695312 -2.58845,-0.846222 -5.24024,-1.269532 -7.95313,-1.269532 z m -222.54297,0.783203 8.75196,34.228516 h 5.36523 l -8.74219,-34.228516 z m 27.43946,0 -8.7129,34.228516 h 5.375 l 5.65235,-22.095703 5.65234,22.095703 h 5.4043 l -8.74219,-34.228516 z m 26.69336,0 -8.7129,34.228516 h 5.38672 l 8.70313,-34.228516 z m 68.20898,0 v 34.228516 h 5.22656 v -3.652344 h 9.55664 l 2.11914,3.652344 h 6.08985 l -2.34766,-4.0625 c 2.26489,-0.448 4.29394,-1.357676 6.08594,-2.726563 1.81689,-1.368886 3.24763,-3.098789 4.29297,-5.189453 1.04533,-2.090664 1.56836,-4.416917 1.56836,-6.980468 0,-2.862219 -0.65941,-5.438741 -1.97852,-7.728516 -1.3191,-2.314663 -3.09985,-4.144284 -5.33984,-5.488281 -2.24,-1.368887 -4.75347,-2.052735 -7.54102,-2.052735 z m 42.63476,0 v 34.228516 h 5.22657 v -0.105469 l 4.4414,-5.33789 3.97266,5.443359 h 6.54492 l -7.08203,-9.550781 20.7207,-24.677735 h -6.83203 L 358.17969,50.302734 V 24.318359 Z m -37.4082,4.666016 h 12.0586 c 1.84176,0 3.52083,0.461924 5.03906,1.382813 1.54311,0.895998 2.7622,2.127315 3.6582,3.695312 0.92089,1.543108 1.38281,3.297453 1.38281,5.263672 0,1.966219 -0.46192,3.732783 -1.38281,5.300781 -0.896,1.543109 -2.11509,2.776378 -3.6582,3.697266 -1.51823,0.895999 -3.1973,1.34375 -5.03906,1.34375 h -12.0586 z M 38.820312,37.810547 10.515625,69.955078 v 10.41211 H 58.814453 V 69.955078 H 24.552734 L 52.857422,37.810547 Z m 28.527344,0 v 42.556641 h 19.796875 c 4.124435,-10e-7 7.97851,-0.768692 11.5625,-2.304688 3.612439,-1.56444 6.784959,-3.712699 9.515629,-6.443359 2.7591,-2.759106 4.90541,-5.929682 6.4414,-9.513672 1.56445,-3.612437 2.34766,-7.481034 2.34766,-11.605469 0,-4.124435 -0.78321,-7.978509 -2.34766,-11.5625 -0.16473,-0.387433 -0.36416,-0.749663 -0.54297,-1.126953 h -12.32226 c 1.33765,1.537468 2.43423,3.242993 3.26562,5.136719 1.024,2.332438 1.53711,4.850519 1.53711,7.552734 0,2.702216 -0.51311,5.232866 -1.53711,7.59375 -1.024,2.332439 -2.43065,4.395504 -4.22265,6.1875 -1.792001,1.763551 -3.869588,3.157643 -6.230472,4.181641 -2.332439,0.995553 -4.821469,1.492187 -7.466797,1.492187 H 77.757812 V 37.810547 Z m 66.556644,0 -15.44141,42.556641 h 11.05078 l 3.83985,-10.582032 h 25.5996 l 3.83985,10.582032 h 11.05078 L 158.37109,37.810547 H 147.22852 L 155.11328,59.375 H 137.15039 L 145,37.810547 Z m 65.10156,29.642578 2.33594,9.132813 h 6.12304 l 2.33594,-9.132813 h -5.36328 l -0.0352,0.134766 -0.0352,-0.134766 z m 26.65625,0 2.33594,9.132813 h 6.19726 l 2.32227,-9.132813 h -5.38672 l -0.0352,0.134766 -0.0351,-0.134766 z m 31.30664,0 c 0.57362,0.743716 1.17715,1.465157 1.82813,2.150391 2.36442,2.488885 5.10373,4.442663 8.21484,5.861328 3.11111,1.393774 6.43257,2.091797 9.9668,2.091797 3.5591,0 6.89474,-0.698023 10.00586,-2.091797 3.1111,-1.418665 5.84845,-3.372443 8.21289,-5.861328 0.65106,-0.685346 1.25435,-1.406544 1.82617,-2.150391 h -7.21289 c -1.45847,1.26455 -3.0669,2.324002 -4.8418,3.158203 -2.464,1.144887 -5.12803,1.71875 -7.99023,1.71875 -2.83733,0 -5.49939,-0.561643 -7.98829,-1.68164 -1.79177,-0.832549 -3.42889,-1.902122 -4.91796,-3.195313 z m 53.34961,0 v 9.132813 h 5.22656 v -9.132813 z m 22.06836,0 5.29687,9.132813 h 6.04688 l -5.27539,-9.132813 z m 20.5664,0 v 9.132813 h 5.22657 v -9.132813 z m 20.14063,0 6.66406,9.132813 h 6.75781 l -6.77148,-9.132813 z m 18.73828,0 c 0.82107,1.928339 2.06828,3.625258 3.79297,5.0625 1.94133,1.617775 4.20648,2.863266 6.79492,3.734375 2.61333,0.871109 5.31206,1.306641 8.09961,1.306641 3.36,0 6.45955,-0.610525 9.29688,-1.830079 2.8622,-1.219552 5.16402,-2.937235 6.90625,-5.152343 0.75167,-0.96644 1.30896,-2.015665 1.73632,-3.121094 h -5.98828 c -0.0929,0.117924 -0.1647,0.244598 -0.26562,0.359375 -1.26933,1.418665 -2.93618,2.525822 -5.00196,3.322266 -2.06576,0.796442 -4.29425,1.195312 -6.68359,1.195312 -2.04088,0 -4.04356,-0.299153 -6.00976,-0.896484 -1.94134,-0.597334 -3.6468,-1.443954 -5.11524,-2.539063 -0.57247,-0.444154 -1.05282,-0.930711 -1.48437,-1.441406 z" />
  </g>
</svg>
