<?xml version="1.0" encoding="UTF-8" standalone="no"?>
<!-- Created with Inkscape (http://www.inkscape.org/) -->

<svg
   width="441"
   height="101"
   viewBox="0 0 441 101"
   version="1.1"
   id="svg1"
   xmlns="http://www.w3.org/2000/svg"
   xmlns:svg="http://www.w3.org/2000/svg"
   xmlns:rdf="http://www.w3.org/1999/02/22-rdf-syntax-ns#"
   xmlns:cc="http://creativecommons.org/ns#"
   xmlns:dc="http://purl.org/dc/elements/1.1/">
  <title
     id="title2">ZDA Works Logo 2024</title>
  <defs
     id="defs1" />
  <g
     id="g2"
     style="display:none;fill:#ffffff;fill-opacity:1"
     transform="translate(-124.5,-309.5)">
    <rect
       style="fill:#fafafa;fill-opacity:1"
       id="rect2"
       width="440.5"
       height="100.5"
       x="124.5"
       y="309.5" />
  </g>
  <g
     id="layer1"
     style="display:none;fill:#29242a;fill-opacity:1"
     transform="translate(-124.5,-309.5)">
    <rect
       style="fill:#29242a;fill-opacity:1"
       id="rect1"
       width="440.5"
       height="100.5"
       x="124.5"
       y="309.5" />
  </g>
  <metadata
     id="metadata2">
    <rdf:RDF>
      <cc:Work
         rdf:about="">
        <dc:title>ZDA Works Logo 2024</dc:title>
      </cc:Work>
    </rdf:RDF>
  </metadata>
  <g
     id="layer2"
     style="display:none">
    <text
       xml:space="preserve"
       style="font-style:normal;font-variant:normal;font-weight:bold;font-stretch:normal;font-size:85.3333px;font-family:Urbanist;-inkscape-font-specification:'Urbanist Bold';letter-spacing:0px;fill:#29242a;fill-opacity:1;stroke:none;stroke-opacity:1"
       x="7.1023622"
       y="80.366653"
       id="text2"><tspan
         id="tspan1"
         x="7.1023622"
         y="80.366653">ZDA</tspan></text>
    <text
       xml:space="preserve"
       style="font-style:normal;font-variant:normal;font-weight:normal;font-stretch:normal;font-size:74.6667px;font-family:Urbanist;-inkscape-font-specification:Urbanist;letter-spacing:0px;fill:#29242a;fill-opacity:1;stroke:none;stroke-opacity:1"
       x="186.22159"
       y="76.585266"
       id="text3"><tspan
         id="tspan2"
         x="186.22159"
         y="76.585266">WORKS</tspan></text>
  </g>
  <g
     id="g15"
     style="display:none">
    <path
       d="M 10.515694,80.366653 V 69.955991 L 44.777013,31.044007 H 10.515694 V 20.633345 H 58.814341 V 31.044007 L 24.553022,69.955991 h 34.261319 v 10.410662 z m 56.831967,0 V 20.633345 h 19.797325 q 6.186665,0 11.562662,2.346666 5.418662,2.303999 9.514662,6.442664 4.13867,4.095998 6.44266,9.514662 2.34667,5.375998 2.34667,11.562662 0,6.186664 -2.34667,11.605329 -2.30399,5.375997 -6.44266,9.514662 -4.096,4.095999 -9.514662,6.442664 -5.375997,2.303999 -11.562662,2.303999 z M 77.758324,69.955991 h 9.386662 q 3.967999,0 7.466664,-1.493333 3.541332,-1.535999 6.22933,-4.181331 2.688,-2.687999 4.224,-6.186664 1.536,-3.541332 1.536,-7.594664 0,-4.053331 -1.536,-7.551997 -1.536,-3.498665 -4.224,-6.186664 -2.687998,-2.687999 -6.186663,-4.181331 -3.498666,-1.536 -7.509331,-1.536 H 77.758324 Z M 140.13708,20.633345 h 11.98933 l 21.71733,59.733308 h -11.05067 l -3.83999,-10.581328 h -25.59999 l -3.84,10.581328 h -11.05066 z m -2.98666,38.741317 h 17.96266 l -9.00267,-24.618656 z"
       id="text14"
       style="font-weight:bold;font-size:85.3333px;font-family:Urbanist;-inkscape-font-specification:'Urbanist Bold';letter-spacing:0px;display:none;fill:#29242a"
       aria-label="ZDA" />
    <rect
       style="display:none;fill:#fafafa;stroke:#fafafa"
       id="rect16"
       width="154.98431"
       height="6.7667789"
       x="10.515694"
       y="31.044006" />
    <path
       id="path16"
       style="font-weight:bold;font-size:85.3333px;font-family:Urbanist;-inkscape-font-specification:'Urbanist Bold';letter-spacing:0px;display:inline;fill:#29242a"
       d="m 10.515625,20.632812 v 10.41211 h 34.261719 14.037109 v -10.41211 z m 56.832031,0 v 10.41211 h 10.410156 9.386719 22.566409 c -0.48093,-0.551794 -0.96303,-1.103209 -1.48828,-1.623047 -2.73067,-2.759107 -5.90319,-4.905408 -9.515629,-6.441406 -3.583994,-1.564443 -7.438061,-2.347656 -11.5625,-2.347657 z m 72.789064,0 -3.77734,10.41211 h 19.55273 l -3.78516,-10.41211 z M 38.820312,37.810547 10.515625,69.955078 v 10.41211 H 58.814453 V 69.955078 H 24.552734 L 52.857422,37.810547 Z m 28.527344,0 v 42.556641 h 19.796875 c 4.124439,-10e-7 7.978506,-0.76869 11.5625,-2.304688 3.612439,-1.564442 6.784959,-3.712696 9.515629,-6.443359 2.75911,-2.759108 4.90541,-5.929678 6.4414,-9.513672 1.56445,-3.61244 2.34766,-7.48103 2.34766,-11.605469 0,-4.124439 -0.78321,-7.978505 -2.34766,-11.5625 -0.16473,-0.387433 -0.36416,-0.749662 -0.54297,-1.126953 h -12.32226 c 1.33765,1.53747 2.43423,3.242991 3.26562,5.136719 1.024,2.332441 1.53711,4.850516 1.53711,7.552734 0,2.702219 -0.51311,5.232864 -1.53711,7.59375 -1.024,2.332441 -2.43065,4.395502 -4.22265,6.1875 -1.792,1.763553 -3.869586,3.157642 -6.230472,4.181641 -2.332441,0.995554 -4.821467,1.492187 -7.466797,1.492187 H 77.757812 V 37.810547 Z m 66.556644,0 -15.44141,42.556641 h 11.05078 l 3.83985,-10.582032 h 25.5996 l 3.83985,10.582032 h 11.05078 L 158.37109,37.810547 H 147.22852 L 155.11328,59.375 H 137.15039 L 145,37.810547 Z" />
    <path
       d="M 201.3416,76.585266 187.97626,24.318575 h 5.376 l 11.05067,43.269353 11.01334,-43.269353 h 4.62933 l 11.05068,43.269353 11.01333,-43.269353 h 5.37601 l -13.29068,52.266691 h -6.19733 L 217.73094,36.451914 207.46426,76.585266 Z m 75.63734,0.970667 q -5.30134,0 -9.96801,-2.090667 -4.66667,-2.128001 -8.21333,-5.861337 -3.54667,-3.733335 -5.56267,-8.624004 -2.016,-4.928002 -2.016,-10.528005 0,-5.600002 2.016,-10.490671 2.016,-4.928003 5.56267,-8.661338 3.54666,-3.733335 8.21333,-5.824003 4.66667,-2.128001 9.96801,-2.128001 5.33867,0 10.00534,2.128001 4.66667,2.090668 8.21333,5.824003 3.54667,3.733335 5.52534,8.661338 2.016,4.890669 2.016,10.490671 0,5.600003 -2.016,10.528005 -1.97867,4.890669 -5.52534,8.624004 -3.54666,3.733336 -8.21333,5.861337 -4.66667,2.090667 -10.00534,2.090667 z m 0,-5.226669 q 4.29333,0 7.98934,-1.717334 3.73333,-1.754668 6.53333,-4.778669 2.83734,-3.024001 4.40534,-6.981337 1.60533,-3.957335 1.60533,-8.400004 0,-4.480002 -1.60533,-8.437337 -1.60534,-3.994669 -4.44267,-6.981337 -2.8,-3.024001 -6.53334,-4.741335 -3.696,-1.717334 -7.952,-1.717334 -4.29334,0 -8.02667,1.754667 -3.696,1.717334 -6.53334,4.741336 -2.8,3.024001 -4.40533,6.981336 -1.568,3.957336 -1.568,8.400004 0,4.517336 1.60533,8.474671 1.60533,3.957335 4.40533,6.981337 2.83734,3.024001 6.53334,4.741335 3.73334,1.680001 7.98934,1.680001 z m 33.33866,4.256002 V 24.318575 h 17.73334 q 4.18133,0 7.54133,2.053334 3.36001,2.016001 5.33867,5.488002 1.97867,3.434669 1.97867,7.728004 0,3.845335 -1.568,6.981337 -1.568,3.136001 -4.29334,5.189336 -2.688,2.053334 -6.08533,2.725334 l 12.768,22.101344 h -6.048 L 325.1016,54.894589 h -9.55734 v 21.690677 z m 5.22666,-26.917346 h 12.05868 q 2.76266,0 5.04,-1.344001 2.31467,-1.381334 3.65867,-3.696001 1.38133,-2.352002 1.38133,-5.301336 0,-2.949335 -1.38133,-5.264003 -1.344,-2.352001 -3.65867,-3.696002 -2.27734,-1.381334 -5.04,-1.381334 h -12.05868 z m 70.97078,26.917346 h -6.75734 l -17.13601,-23.482678 -4.44267,5.338669 v 18.144009 h -5.22667 V 24.318575 h 5.22667 v 25.984012 l 21.76535,-25.984012 h 6.832 L 366.05636,48.99592 Z m 24.00539,0.970667 q -4.18133,0 -8.10133,-1.306667 -3.88267,-1.306667 -6.79467,-3.733335 -2.912,-2.426668 -4.10667,-5.78667 l 4.89067,-1.829334 q 0.82133,2.314668 2.98667,3.994669 2.20266,1.642667 5.11467,2.538668 2.94933,0.896 6.01066,0.896 3.58401,0 6.68267,-1.194667 3.09867,-1.194667 5.00267,-3.322668 1.904,-2.165335 1.904,-5.077336 0,-2.949335 -1.97866,-4.853336 -1.97867,-1.904001 -5.11467,-2.986668 -3.09867,-1.12 -6.49601,-1.717334 -5.33866,-0.933334 -9.59467,-2.538668 -4.21867,-1.605334 -6.68267,-4.517335 -2.464,-2.949335 -2.464,-7.765337 0,-4.517336 2.61334,-7.840004 2.61333,-3.322668 6.86933,-5.152003 4.29334,-1.829334 9.25867,-1.829334 4.06934,0 7.95201,1.269334 3.88267,1.269334 6.832,3.696002 2.98667,2.426668 4.29334,5.936003 l -4.96534,1.792001 q -0.82133,-2.352002 -3.024,-3.994669 -2.16533,-1.680001 -5.07734,-2.538668 -2.912,-0.896 -6.01067,-0.896 -3.54666,-0.03733 -6.64533,1.194667 -3.06134,1.194667 -4.96534,3.360001 -1.904,2.128002 -1.904,5.00267 0,3.360001 1.75467,5.189335 1.792,1.792001 4.85333,2.688002 3.06134,0.896 6.90667,1.605334 5.00267,0.858667 9.29601,2.688001 4.29333,1.792001 6.90667,4.816002 2.61333,2.986668 2.61333,7.392004 0,4.480002 -2.61333,7.840004 -2.61334,3.322668 -6.90667,5.152002 -4.256,1.829334 -9.29601,1.829334 z"
       id="text15"
       style="font-size:74.6667px;font-family:Urbanist;-inkscape-font-specification:Urbanist;letter-spacing:0px;display:none;fill:#29242a"
       aria-label="WORKS" />
    <rect
       style="display:none;fill:#fafafa;stroke:#fafafa"
       id="rect17"
       width="235"
       height="8.9044485"
       x="195.5"
       y="58.547775" />
    <path
       id="path17"
       style="font-size:74.6667px;font-family:Urbanist;-inkscape-font-specification:Urbanist;letter-spacing:0px;display:inline;fill:#29242a"
       d="m 276.97852,23.347656 c -3.53423,0 -6.85569,0.710241 -9.9668,2.128906 -3.11111,1.393778 -5.85041,3.335332 -8.21484,5.824219 -2.36445,2.488888 -4.21851,5.374824 -5.5625,8.660157 -1.344,3.260442 -2.01563,6.756903 -2.01563,10.490234 0,2.826913 0.38955,5.525658 1.16016,8.095703 h 5.53906 c -0.97186,-2.530805 -1.47266,-5.225877 -1.47266,-8.095703 0,-2.961776 0.52303,-5.760216 1.56836,-8.398438 1.07022,-2.63822 2.53763,-4.966423 4.4043,-6.982422 1.89156,-2.015999 4.07116,-3.595346 6.53515,-4.740234 2.48889,-1.169777 5.16317,-1.755859 8.0254,-1.755859 2.83733,0 5.48912,0.571908 7.95312,1.716797 2.48889,1.144888 4.66654,2.726188 6.5332,4.742187 1.89156,1.99111 3.37118,4.317359 4.44141,6.980469 1.07022,2.638221 1.60547,5.450835 1.60547,8.4375 0,2.84933 -0.50755,5.545827 -1.49805,8.095703 h 5.56641 c 0.7706,-2.57004 1.1582,-5.268796 1.1582,-8.095703 0,-3.733331 -0.67163,-7.229792 -2.01562,-10.490234 -1.31912,-3.285333 -3.16095,-6.171269 -5.52539,-8.660157 -2.36444,-2.488887 -5.10178,-4.430441 -8.21289,-5.824219 -3.11112,-1.418665 -6.44675,-2.128906 -10.00586,-2.128906 z m 133.54101,0.1875 c -3.31022,0 -6.39559,0.60857 -9.25781,1.828125 -2.83733,1.219556 -5.12692,2.937234 -6.86914,5.152344 -1.74223,2.21511 -2.61328,4.828289 -2.61328,7.839844 0,3.210665 0.82022,5.799403 2.46289,7.765625 1.64266,1.941332 3.87115,3.447356 6.68359,4.517578 2.83734,1.070221 6.03465,1.91684 9.59375,2.539062 2.26489,0.398223 4.43032,0.970131 6.49609,1.716797 2.09067,0.721778 3.79613,1.716996 5.11524,2.986328 0.21586,0.207714 0.38587,0.439641 0.56641,0.666016 h 5.92382 c -0.4349,-1.175459 -1.06108,-2.248096 -1.89843,-3.205078 -1.74223,-2.015999 -4.04404,-3.619787 -6.90625,-4.814453 -2.86223,-1.219555 -5.96177,-2.117009 -9.29688,-2.689453 -2.56355,-0.472889 -4.86536,-1.008136 -6.90625,-1.605469 -2.04088,-0.597334 -3.65885,-1.492834 -4.85351,-2.6875 -1.16978,-1.219555 -1.75391,-2.949455 -1.75391,-5.189453 0,-1.916444 0.63496,-3.583287 1.9043,-5.001953 1.26933,-1.443555 2.92395,-2.562932 4.96484,-3.359375 2.06578,-0.821331 4.28009,-1.2202 6.64453,-1.195313 2.06578,0 4.07039,0.299152 6.01172,0.896484 1.94134,0.572445 3.63457,1.41711 5.07813,2.53711 1.46844,1.09511 2.47588,2.428094 3.02343,3.996094 l 4.96485,-1.792969 c -0.87112,-2.339554 -2.30186,-4.31777 -4.29297,-5.935547 -1.96622,-1.617777 -4.24359,-2.849091 -6.83203,-3.695312 -2.58845,-0.846222 -5.24024,-1.269532 -7.95313,-1.269532 z m -222.54297,0.783203 8.75196,34.228516 h 5.36523 l -8.74219,-34.228516 z m 27.43946,0 -8.7129,34.228516 h 5.375 l 5.65235,-22.095703 5.65234,22.095703 h 5.4043 l -8.74219,-34.228516 z m 26.69336,0 -8.7129,34.228516 h 5.38672 l 8.70313,-34.228516 z m 68.20898,0 v 34.228516 h 5.22656 v -3.652344 h 9.55664 l 2.11914,3.652344 h 6.08985 l -2.34766,-4.0625 c 2.26489,-0.448 4.29394,-1.357675 6.08594,-2.726563 1.81689,-1.368888 3.24763,-3.098787 4.29297,-5.189453 1.04533,-2.090666 1.56836,-4.416914 1.56836,-6.980468 0,-2.862221 -0.65941,-5.438739 -1.97852,-7.728516 -1.3191,-2.314665 -3.09984,-4.144282 -5.33984,-5.488281 -2.24,-1.368888 -4.75347,-2.052735 -7.54102,-2.052735 z m 42.63476,0 v 34.228516 h 5.22657 v -0.105469 l 4.4414,-5.33789 3.97266,5.443359 h 6.54492 l -7.08203,-9.550781 20.7207,-24.677735 h -6.83203 L 358.17969,50.302734 V 24.318359 Z m -37.4082,4.666016 h 12.0586 c 1.84177,0 3.52083,0.461924 5.03906,1.382813 1.54311,0.895999 2.7622,2.127313 3.6582,3.695312 0.92089,1.54311 1.38281,3.297451 1.38281,5.263672 0,1.966221 -0.46192,3.732781 -1.38281,5.300781 -0.896,1.54311 -2.11509,2.776377 -3.6582,3.697266 -1.51823,0.896 -3.19729,1.34375 -5.03906,1.34375 h -12.0586 z m -116.53906,38.46875 2.33594,9.132813 h 6.12304 l 2.33594,-9.132813 h -5.36328 l -0.0352,0.134766 -0.0352,-0.134766 z m 26.65625,0 2.33594,9.132813 h 6.19726 l 2.32227,-9.132813 h -5.38672 l -0.0352,0.134766 -0.0351,-0.134766 z m 31.30664,0 c 0.57362,0.743717 1.17715,1.465157 1.82813,2.150391 2.36443,2.488888 5.10373,4.442662 8.21484,5.861328 3.11111,1.393776 6.43257,2.091797 9.9668,2.091797 3.55911,0 6.89474,-0.698021 10.00586,-2.091797 3.11111,-1.418666 5.84845,-3.37244 8.21289,-5.861328 0.65107,-0.685346 1.25435,-1.406543 1.82617,-2.150391 h -7.21289 c -1.45847,1.264551 -3.0669,2.324001 -4.8418,3.158203 -2.464,1.144888 -5.12802,1.71875 -7.99023,1.71875 -2.83733,0 -5.49939,-0.561641 -7.98829,-1.68164 -1.79178,-0.832549 -3.42888,-1.902121 -4.91796,-3.195313 z m 53.34961,0 v 9.132813 h 5.22656 v -9.132813 z m 22.06836,0 5.29687,9.132813 h 6.04688 l -5.27539,-9.132813 z m 20.5664,0 v 9.132813 h 5.22657 v -9.132813 z m 20.14063,0 6.66406,9.132813 h 6.75781 l -6.77148,-9.132813 z m 18.73828,0 c 0.82107,1.928341 2.06828,3.625257 3.79297,5.0625 1.94133,1.617777 4.20648,2.863265 6.79492,3.734375 2.61333,0.87111 5.31206,1.306641 8.09961,1.306641 3.36,0 6.45955,-0.610524 9.29688,-1.830079 2.86221,-1.219554 5.16402,-2.937233 6.90625,-5.152343 0.75167,-0.966441 1.30896,-2.015664 1.73632,-3.121094 h -5.98828 c -0.0929,0.117924 -0.1647,0.244598 -0.26562,0.359375 -1.26933,1.418666 -2.93618,2.525822 -5.00196,3.322266 -2.06577,0.796443 -4.29425,1.195312 -6.68359,1.195312 -2.04088,0 -4.04355,-0.299152 -6.00976,-0.896484 -1.94134,-0.597334 -3.6468,-1.443953 -5.11524,-2.539063 -0.57247,-0.444155 -1.05282,-0.93071 -1.48437,-1.441406 z" />
  </g>
  <g
     id="g8"
     style="display:none">
    <text
       xml:space="preserve"
       style="font-style:normal;font-variant:normal;font-weight:bold;font-stretch:normal;font-size:85.3333px;font-family:Urbanist;-inkscape-font-specification:'Urbanist Bold';letter-spacing:0px;fill:#fafafa;fill-opacity:1;stroke:none;stroke-opacity:1"
       x="7.1023622"
       y="80.366653"
       id="text7"><tspan
         id="tspan3"
         x="7.1023622"
         y="80.366653">ZDA</tspan></text>
    <text
       xml:space="preserve"
       style="font-style:normal;font-variant:normal;font-weight:normal;font-stretch:normal;font-size:74.6667px;font-family:Urbanist;-inkscape-font-specification:Urbanist;letter-spacing:0px;fill:#fafafa;fill-opacity:1;stroke:none;stroke-opacity:1"
       x="186.22159"
       y="76.585266"
       id="text8"><tspan
         id="tspan7"
         x="186.22159"
         y="76.585266">WORKS</tspan></text>
  </g>
  <g
     id="g22"
     style="display:none">
    <path
       d="M 10.515694,80.366653 V 69.955991 L 44.777013,31.044007 H 10.515694 V 20.633345 H 58.814341 V 31.044007 L 24.553022,69.955991 h 34.261319 v 10.410662 z m 56.831967,0 V 20.633345 h 19.797325 q 6.186665,0 11.562662,2.346666 5.418662,2.303999 9.514662,6.442664 4.13867,4.095998 6.44266,9.514662 2.34667,5.375998 2.34667,11.562662 0,6.186664 -2.34667,11.605329 -2.30399,5.375997 -6.44266,9.514662 -4.096,4.095999 -9.514662,6.442664 -5.375997,2.303999 -11.562662,2.303999 z M 77.758324,69.955991 h 9.386662 q 3.967999,0 7.466664,-1.493333 3.541332,-1.535999 6.22933,-4.181331 2.688,-2.687999 4.224,-6.186664 1.536,-3.541332 1.536,-7.594664 0,-4.053331 -1.536,-7.551997 -1.536,-3.498665 -4.224,-6.186664 -2.687998,-2.687999 -6.186663,-4.181331 -3.498666,-1.536 -7.509331,-1.536 H 77.758324 Z M 140.13708,20.633345 h 11.98933 l 21.71733,59.733308 h -11.05067 l -3.83999,-10.581328 h -25.59999 l -3.84,10.581328 h -11.05066 z m -2.98666,38.741317 h 17.96266 l -9.00267,-24.618656 z"
       id="text21"
       style="font-weight:bold;font-size:85.3333px;font-family:Urbanist;-inkscape-font-specification:'Urbanist Bold';letter-spacing:0px;display:none;fill:#fafafa"
       aria-label="ZDA" />
    <rect
       style="display:none;fill:#29242a;fill-opacity:1;stroke:#29242a;stroke-opacity:1"
       id="rect22"
       width="154.98431"
       height="6.7667789"
       x="10.515694"
       y="31.044006" />
    <path
       id="path23"
       style="font-weight:bold;font-size:85.3333px;font-family:Urbanist;-inkscape-font-specification:'Urbanist Bold';letter-spacing:0px;display:inline;fill:#fafafa"
       d="m 10.515625,20.632812 v 10.41211 h 34.261719 14.037109 v -10.41211 z m 56.832031,0 v 10.41211 h 10.410156 9.386719 22.566409 c -0.48093,-0.551794 -0.96303,-1.103209 -1.48828,-1.623047 -2.73067,-2.759107 -5.90319,-4.905408 -9.515629,-6.441406 -3.583994,-1.564443 -7.438061,-2.347656 -11.5625,-2.347657 z m 72.789064,0 -3.77734,10.41211 h 19.55273 l -3.78516,-10.41211 z M 38.820312,37.810547 10.515625,69.955078 v 10.41211 H 58.814453 V 69.955078 H 24.552734 L 52.857422,37.810547 Z m 28.527344,0 v 42.556641 h 19.796875 c 4.124439,-10e-7 7.978506,-0.76869 11.5625,-2.304688 3.612439,-1.564442 6.784959,-3.712696 9.515629,-6.443359 2.75911,-2.759108 4.90541,-5.929678 6.4414,-9.513672 1.56445,-3.61244 2.34766,-7.48103 2.34766,-11.605469 0,-4.124439 -0.78321,-7.978505 -2.34766,-11.5625 -0.16473,-0.387433 -0.36416,-0.749662 -0.54297,-1.126953 h -12.32226 c 1.33765,1.53747 2.43423,3.242991 3.26562,5.136719 1.024,2.332441 1.53711,4.850516 1.53711,7.552734 0,2.702219 -0.51311,5.232864 -1.53711,7.59375 -1.024,2.332441 -2.43065,4.395502 -4.22265,6.1875 -1.792,1.763553 -3.869586,3.157642 -6.230472,4.181641 -2.332441,0.995554 -4.821467,1.492187 -7.466797,1.492187 H 77.757812 V 37.810547 Z m 66.556644,0 -15.44141,42.556641 h 11.05078 l 3.83985,-10.582032 h 25.5996 l 3.83985,10.582032 h 11.05078 L 158.37109,37.810547 H 147.22852 L 155.11328,59.375 H 137.15039 L 145,37.810547 Z" />
    <path
       d="M 201.3416,76.585266 187.97626,24.318575 h 5.376 l 11.05067,43.269353 11.01334,-43.269353 h 4.62933 l 11.05068,43.269353 11.01333,-43.269353 h 5.37601 l -13.29068,52.266691 h -6.19733 L 217.73094,36.451914 207.46426,76.585266 Z m 75.63734,0.970667 q -5.30134,0 -9.96801,-2.090667 -4.66667,-2.128001 -8.21333,-5.861337 -3.54667,-3.733335 -5.56267,-8.624004 -2.016,-4.928002 -2.016,-10.528005 0,-5.600002 2.016,-10.490671 2.016,-4.928003 5.56267,-8.661338 3.54666,-3.733335 8.21333,-5.824003 4.66667,-2.128001 9.96801,-2.128001 5.33867,0 10.00534,2.128001 4.66667,2.090668 8.21333,5.824003 3.54667,3.733335 5.52534,8.661338 2.016,4.890669 2.016,10.490671 0,5.600003 -2.016,10.528005 -1.97867,4.890669 -5.52534,8.624004 -3.54666,3.733336 -8.21333,5.861337 -4.66667,2.090667 -10.00534,2.090667 z m 0,-5.226669 q 4.29333,0 7.98934,-1.717334 3.73333,-1.754668 6.53333,-4.778669 2.83734,-3.024001 4.40534,-6.981337 1.60533,-3.957335 1.60533,-8.400004 0,-4.480002 -1.60533,-8.437337 -1.60534,-3.994669 -4.44267,-6.981337 -2.8,-3.024001 -6.53334,-4.741335 -3.696,-1.717334 -7.952,-1.717334 -4.29334,0 -8.02667,1.754667 -3.696,1.717334 -6.53334,4.741336 -2.8,3.024001 -4.40533,6.981336 -1.568,3.957336 -1.568,8.400004 0,4.517336 1.60533,8.474671 1.60533,3.957335 4.40533,6.981337 2.83734,3.024001 6.53334,4.741335 3.73334,1.680001 7.98934,1.680001 z m 33.33866,4.256002 V 24.318575 h 17.73334 q 4.18133,0 7.54133,2.053334 3.36001,2.016001 5.33867,5.488002 1.97867,3.434669 1.97867,7.728004 0,3.845335 -1.568,6.981337 -1.568,3.136001 -4.29334,5.189336 -2.688,2.053334 -6.08533,2.725334 l 12.768,22.101344 h -6.048 L 325.1016,54.894589 h -9.55734 v 21.690677 z m 5.22666,-26.917346 h 12.05868 q 2.76266,0 5.04,-1.344001 2.31467,-1.381334 3.65867,-3.696001 1.38133,-2.352002 1.38133,-5.301336 0,-2.949335 -1.38133,-5.264003 -1.344,-2.352001 -3.65867,-3.696002 -2.27734,-1.381334 -5.04,-1.381334 h -12.05868 z m 70.97078,26.917346 h -6.75734 l -17.13601,-23.482678 -4.44267,5.338669 v 18.144009 h -5.22667 V 24.318575 h 5.22667 v 25.984012 l 21.76535,-25.984012 h 6.832 L 366.05636,48.99592 Z m 24.00539,0.970667 q -4.18133,0 -8.10133,-1.306667 -3.88267,-1.306667 -6.79467,-3.733335 -2.912,-2.426668 -4.10667,-5.78667 l 4.89067,-1.829334 q 0.82133,2.314668 2.98667,3.994669 2.20266,1.642667 5.11467,2.538668 2.94933,0.896 6.01066,0.896 3.58401,0 6.68267,-1.194667 3.09867,-1.194667 5.00267,-3.322668 1.904,-2.165335 1.904,-5.077336 0,-2.949335 -1.97866,-4.853336 -1.97867,-1.904001 -5.11467,-2.986668 -3.09867,-1.12 -6.49601,-1.717334 -5.33866,-0.933334 -9.59467,-2.538668 -4.21867,-1.605334 -6.68267,-4.517335 -2.464,-2.949335 -2.464,-7.765337 0,-4.517336 2.61334,-7.840004 2.61333,-3.322668 6.86933,-5.152003 4.29334,-1.829334 9.25867,-1.829334 4.06934,0 7.95201,1.269334 3.88267,1.269334 6.832,3.696002 2.98667,2.426668 4.29334,5.936003 l -4.96534,1.792001 q -0.82133,-2.352002 -3.024,-3.994669 -2.16533,-1.680001 -5.07734,-2.538668 -2.912,-0.896 -6.01067,-0.896 -3.54666,-0.03733 -6.64533,1.194667 -3.06134,1.194667 -4.96534,3.360001 -1.904,2.128002 -1.904,5.00267 0,3.360001 1.75467,5.189335 1.792,1.792001 4.85333,2.688002 3.06134,0.896 6.90667,1.605334 5.00267,0.858667 9.29601,2.688001 4.29333,1.792001 6.90667,4.816002 2.61333,2.986668 2.61333,7.392004 0,4.480002 -2.61333,7.840004 -2.61334,3.322668 -6.90667,5.152002 -4.256,1.829334 -9.29601,1.829334 z"
       id="text22"
       style="font-size:74.6667px;font-family:Urbanist;-inkscape-font-specification:Urbanist;letter-spacing:0px;display:none;fill:#fafafa"
       aria-label="WORKS" />
    <rect
       style="display:none;fill:#29242a;fill-opacity:1;stroke:#29242a;stroke-opacity:1"
       id="rect23"
       width="235"
       height="8.9044485"
       x="195.5"
       y="58.547775" />
    <path
       id="path24"
       style="font-size:74.6667px;font-family:Urbanist;-inkscape-font-specification:Urbanist;letter-spacing:0px;display:inline;fill:#fafafa"
       d="m 276.97852,23.347656 c -3.53423,0 -6.85569,0.710241 -9.9668,2.128906 -3.11111,1.393778 -5.85041,3.335332 -8.21484,5.824219 -2.36445,2.488888 -4.21851,5.374824 -5.5625,8.660157 -1.344,3.260442 -2.01563,6.756903 -2.01563,10.490234 0,2.826913 0.38955,5.525658 1.16016,8.095703 h 5.53906 c -0.97186,-2.530805 -1.47266,-5.225877 -1.47266,-8.095703 0,-2.961776 0.52303,-5.760216 1.56836,-8.398438 1.07022,-2.63822 2.53763,-4.966423 4.4043,-6.982422 1.89156,-2.015999 4.07116,-3.595346 6.53515,-4.740234 2.48889,-1.169777 5.16317,-1.755859 8.0254,-1.755859 2.83733,0 5.48912,0.571908 7.95312,1.716797 2.48889,1.144888 4.66654,2.726188 6.5332,4.742187 1.89156,1.99111 3.37118,4.317359 4.44141,6.980469 1.07022,2.638221 1.60547,5.450835 1.60547,8.4375 0,2.84933 -0.50755,5.545827 -1.49805,8.095703 h 5.56641 c 0.7706,-2.57004 1.1582,-5.268796 1.1582,-8.095703 0,-3.733331 -0.67163,-7.229792 -2.01562,-10.490234 -1.31912,-3.285333 -3.16095,-6.171269 -5.52539,-8.660157 -2.36444,-2.488887 -5.10178,-4.430441 -8.21289,-5.824219 -3.11112,-1.418665 -6.44675,-2.128906 -10.00586,-2.128906 z m 133.54101,0.1875 c -3.31022,0 -6.39559,0.60857 -9.25781,1.828125 -2.83733,1.219556 -5.12692,2.937234 -6.86914,5.152344 -1.74223,2.21511 -2.61328,4.828289 -2.61328,7.839844 0,3.210665 0.82022,5.799403 2.46289,7.765625 1.64266,1.941332 3.87115,3.447356 6.68359,4.517578 2.83734,1.070221 6.03465,1.91684 9.59375,2.539062 2.26489,0.398223 4.43032,0.970131 6.49609,1.716797 2.09067,0.721778 3.79613,1.716996 5.11524,2.986328 0.21586,0.207714 0.38587,0.439641 0.56641,0.666016 h 5.92382 c -0.4349,-1.175459 -1.06108,-2.248096 -1.89843,-3.205078 -1.74223,-2.015999 -4.04404,-3.619787 -6.90625,-4.814453 -2.86223,-1.219555 -5.96177,-2.117009 -9.29688,-2.689453 -2.56355,-0.472889 -4.86536,-1.008136 -6.90625,-1.605469 -2.04088,-0.597334 -3.65885,-1.492834 -4.85351,-2.6875 -1.16978,-1.219555 -1.75391,-2.949455 -1.75391,-5.189453 0,-1.916444 0.63496,-3.583287 1.9043,-5.001953 1.26933,-1.443555 2.92395,-2.562932 4.96484,-3.359375 2.06578,-0.821331 4.28009,-1.2202 6.64453,-1.195313 2.06578,0 4.07039,0.299152 6.01172,0.896484 1.94134,0.572445 3.63457,1.41711 5.07813,2.53711 1.46844,1.09511 2.47588,2.428094 3.02343,3.996094 l 4.96485,-1.792969 c -0.87112,-2.339554 -2.30186,-4.31777 -4.29297,-5.935547 -1.96622,-1.617777 -4.24359,-2.849091 -6.83203,-3.695312 -2.58845,-0.846222 -5.24024,-1.269532 -7.95313,-1.269532 z m -222.54297,0.783203 8.75196,34.228516 h 5.36523 l -8.74219,-34.228516 z m 27.43946,0 -8.7129,34.228516 h 5.375 l 5.65235,-22.095703 5.65234,22.095703 h 5.4043 l -8.74219,-34.228516 z m 26.69336,0 -8.7129,34.228516 h 5.38672 l 8.70313,-34.228516 z m 68.20898,0 v 34.228516 h 5.22656 v -3.652344 h 9.55664 l 2.11914,3.652344 h 6.08985 l -2.34766,-4.0625 c 2.26489,-0.448 4.29394,-1.357675 6.08594,-2.726563 1.81689,-1.368888 3.24763,-3.098787 4.29297,-5.189453 1.04533,-2.090666 1.56836,-4.416914 1.56836,-6.980468 0,-2.862221 -0.65941,-5.438739 -1.97852,-7.728516 -1.3191,-2.314665 -3.09984,-4.144282 -5.33984,-5.488281 -2.24,-1.368888 -4.75347,-2.052735 -7.54102,-2.052735 z m 42.63476,0 v 34.228516 h 5.22657 v -0.105469 l 4.4414,-5.33789 3.97266,5.443359 h 6.54492 l -7.08203,-9.550781 20.7207,-24.677735 h -6.83203 L 358.17969,50.302734 V 24.318359 Z m -37.4082,4.666016 h 12.0586 c 1.84177,0 3.52083,0.461924 5.03906,1.382813 1.54311,0.895999 2.7622,2.127313 3.6582,3.695312 0.92089,1.54311 1.38281,3.297451 1.38281,5.263672 0,1.966221 -0.46192,3.732781 -1.38281,5.300781 -0.896,1.54311 -2.11509,2.776377 -3.6582,3.697266 -1.51823,0.896 -3.19729,1.34375 -5.03906,1.34375 h -12.0586 z m -116.53906,38.46875 2.33594,9.132813 h 6.12304 l 2.33594,-9.132813 h -5.36328 l -0.0352,0.134766 -0.0352,-0.134766 z m 26.65625,0 2.33594,9.132813 h 6.19726 l 2.32227,-9.132813 h -5.38672 l -0.0352,0.134766 -0.0351,-0.134766 z m 31.30664,0 c 0.57362,0.743717 1.17715,1.465157 1.82813,2.150391 2.36443,2.488888 5.10373,4.442662 8.21484,5.861328 3.11111,1.393776 6.43257,2.091797 9.9668,2.091797 3.55911,0 6.89474,-0.698021 10.00586,-2.091797 3.11111,-1.418666 5.84845,-3.37244 8.21289,-5.861328 0.65107,-0.685346 1.25435,-1.406543 1.82617,-2.150391 h -7.21289 c -1.45847,1.264551 -3.0669,2.324001 -4.8418,3.158203 -2.464,1.144888 -5.12802,1.71875 -7.99023,1.71875 -2.83733,0 -5.49939,-0.561641 -7.98829,-1.68164 -1.79178,-0.832549 -3.42888,-1.902121 -4.91796,-3.195313 z m 53.34961,0 v 9.132813 h 5.22656 v -9.132813 z m 22.06836,0 5.29687,9.132813 h 6.04688 l -5.27539,-9.132813 z m 20.5664,0 v 9.132813 h 5.22657 v -9.132813 z m 20.14063,0 6.66406,9.132813 h 6.75781 l -6.77148,-9.132813 z m 18.73828,0 c 0.82107,1.928341 2.06828,3.625257 3.79297,5.0625 1.94133,1.617777 4.20648,2.863265 6.79492,3.734375 2.61333,0.87111 5.31206,1.306641 8.09961,1.306641 3.36,0 6.45955,-0.610524 9.29688,-1.830079 2.86221,-1.219554 5.16402,-2.937233 6.90625,-5.152343 0.75167,-0.966441 1.30896,-2.015664 1.73632,-3.121094 h -5.98828 c -0.0929,0.117924 -0.1647,0.244598 -0.26562,0.359375 -1.26933,1.418666 -2.93618,2.525822 -5.00196,3.322266 -2.06577,0.796443 -4.29425,1.195312 -6.68359,1.195312 -2.04088,0 -4.04355,-0.299152 -6.00976,-0.896484 -1.94134,-0.597334 -3.6468,-1.443953 -5.11524,-2.539063 -0.57247,-0.444155 -1.05282,-0.93071 -1.48437,-1.441406 z" />
  </g>
  <g
     id="g11"
     style="display:none">
    <text
       xml:space="preserve"
       style="font-style:normal;font-variant:normal;font-weight:bold;font-stretch:normal;font-size:85.3333px;font-family:Urbanist;-inkscape-font-specification:'Urbanist Bold';letter-spacing:0px;fill:#a1affa;fill-opacity:0.941176;stroke:none;stroke-opacity:1"
       x="7.1023622"
       y="80.366653"
       id="text10"><tspan
         id="tspan10"
         x="7.1023622"
         y="80.366653">ZDA</tspan></text>
    <text
       xml:space="preserve"
       style="font-style:normal;font-variant:normal;font-weight:normal;font-stretch:normal;font-size:74.6667px;font-family:Urbanist;-inkscape-font-specification:Urbanist;letter-spacing:0px;fill:#a1affa;fill-opacity:0.941176;stroke:none;stroke-opacity:1"
       x="186.22159"
       y="76.585266"
       id="text11"><tspan
         id="tspan11"
         x="186.22159"
         y="76.585266">WORKS</tspan></text>
  </g>
  <g
     id="g12"
     style="display:none">
    <path
       id="text9"
       style="font-weight:bold;font-size:85.3333px;font-family:Urbanist;-inkscape-font-specification:'Urbanist Bold';letter-spacing:0px;display:inline;fill:#29242a"
       d="m 10.515625,20.632812 v 10.41211 H 44.777344 L 10.515625,69.955078 v 10.41211 H 58.814453 V 69.955078 H 24.552734 L 58.814453,31.044922 v -10.41211 z m 56.832031,0 v 59.734376 h 19.796875 c 4.124439,-10e-7 7.978506,-0.76869 11.5625,-2.304688 3.612439,-1.564442 6.784959,-3.712696 9.515629,-6.443359 2.75911,-2.759108 4.90541,-5.929678 6.4414,-9.513672 1.56445,-3.61244 2.34766,-7.48103 2.34766,-11.605469 0,-4.124439 -0.78321,-7.978505 -2.34766,-11.5625 -1.53599,-3.612439 -3.68229,-6.784962 -6.4414,-9.515625 -2.73067,-2.759107 -5.90319,-4.905408 -9.515629,-6.441406 -3.583994,-1.564443 -7.438061,-2.347656 -11.5625,-2.347657 z m 72.789064,0 -21.67383,59.734376 h 11.05078 l 3.83985,-10.582032 h 25.5996 l 3.83985,10.582032 h 11.05078 l -21.7168,-59.734376 z m 136.8418,2.714844 c -3.53423,0 -6.85569,0.710241 -9.9668,2.128906 -3.11111,1.393778 -5.85041,3.335332 -8.21484,5.824219 -2.36445,2.488888 -4.21851,5.374824 -5.5625,8.660157 -1.344,3.260442 -2.01563,6.756903 -2.01563,10.490234 0,3.733331 0.67163,7.243965 2.01563,10.529297 1.34399,3.260442 3.19805,6.134159 5.5625,8.623047 2.36443,2.488888 5.10373,4.442662 8.21484,5.861328 3.11111,1.393776 6.43257,2.091797 9.9668,2.091797 3.55911,0 6.89474,-0.698021 10.00586,-2.091797 3.11111,-1.418666 5.84845,-3.37244 8.21289,-5.861328 2.36444,-2.488888 4.20627,-5.362605 5.52539,-8.623047 1.34399,-3.285332 2.01562,-6.795966 2.01562,-10.529297 0,-3.733331 -0.67163,-7.229792 -2.01562,-10.490234 -1.31912,-3.285333 -3.16095,-6.171269 -5.52539,-8.660157 -2.36444,-2.488887 -5.10178,-4.430441 -8.21289,-5.824219 -3.11112,-1.418665 -6.44675,-2.128906 -10.00586,-2.128906 z m 133.54101,0.1875 c -3.31022,0 -6.39559,0.60857 -9.25781,1.828125 -2.83733,1.219556 -5.12692,2.937234 -6.86914,5.152344 -1.74223,2.21511 -2.61328,4.828289 -2.61328,7.839844 0,3.210665 0.82022,5.799403 2.46289,7.765625 1.64266,1.941332 3.87115,3.447356 6.68359,4.517578 2.83734,1.070221 6.03465,1.91684 9.59375,2.539062 2.26489,0.398223 4.43032,0.970131 6.49609,1.716797 2.09067,0.721778 3.79613,1.716996 5.11524,2.986328 1.3191,1.269333 1.97852,2.887295 1.97852,4.853516 -10e-6,1.941332 -0.63497,3.63457 -1.9043,5.078125 -1.26933,1.418666 -2.93618,2.525822 -5.00196,3.322266 -2.06577,0.796443 -4.29425,1.195312 -6.68359,1.195312 -2.04088,0 -4.04355,-0.299152 -6.00976,-0.896484 -1.94134,-0.597334 -3.6468,-1.443953 -5.11524,-2.539063 -1.44356,-1.119999 -2.43877,-2.45103 -2.98633,-3.99414 l -4.89062,1.828125 c 0.79644,2.239999 2.16609,4.169332 4.10742,5.787109 1.94133,1.617777 4.20648,2.863265 6.79492,3.734375 2.61333,0.87111 5.31206,1.306641 8.09961,1.306641 3.36,0 6.45955,-0.610524 9.29688,-1.830079 2.86221,-1.219554 5.16402,-2.937233 6.90625,-5.152343 1.74221,-2.239999 2.61328,-4.853179 2.61328,-7.839844 0,-2.936888 -0.87107,-5.401468 -2.61328,-7.392578 -1.74223,-2.015999 -4.04404,-3.619787 -6.90625,-4.814453 -2.86223,-1.219555 -5.96177,-2.117009 -9.29688,-2.689453 -2.56355,-0.472889 -4.86536,-1.008136 -6.90625,-1.605469 -2.04088,-0.597334 -3.65885,-1.492834 -4.85351,-2.6875 -1.16978,-1.219555 -1.75391,-2.949455 -1.75391,-5.189453 0,-1.916444 0.63496,-3.583287 1.9043,-5.001953 1.26933,-1.443555 2.92395,-2.562932 4.96484,-3.359375 2.06578,-0.821331 4.28009,-1.2202 6.64453,-1.195313 2.06578,0 4.07039,0.299152 6.01172,0.896484 1.94134,0.572445 3.63457,1.41711 5.07813,2.53711 1.46844,1.09511 2.47588,2.428094 3.02343,3.996094 l 4.96485,-1.792969 c -0.87112,-2.339554 -2.30186,-4.31777 -4.29297,-5.935547 -1.96622,-1.617777 -4.24359,-2.849091 -6.83203,-3.695312 -2.58845,-0.846222 -5.24024,-1.269532 -7.95313,-1.269532 z m -222.54297,0.783203 13.36524,52.267579 h 6.12304 l 10.26563,-40.134766 10.26758,40.134766 h 6.19726 l 13.29102,-52.267579 h -5.37695 L 231.0957,67.587891 220.04492,24.318359 h -4.6289 L 204.40234,67.587891 193.35156,24.318359 Z m 122.3418,0 v 52.267579 h 5.22656 V 54.894531 h 9.55664 l 12.58203,21.691407 h 6.04688 L 330.96289,54.484375 c 2.26489,-0.448 4.29394,-1.357675 6.08594,-2.726563 1.81689,-1.368888 3.24763,-3.098787 4.29297,-5.189453 1.04533,-2.090666 1.56836,-4.416914 1.56836,-6.980468 0,-2.862221 -0.65941,-5.438739 -1.97852,-7.728516 -1.3191,-2.314665 -3.09984,-4.144282 -5.33984,-5.488281 -2.24,-1.368888 -4.75347,-2.052735 -7.54102,-2.052735 z m 42.63476,0 v 52.267579 h 5.22657 V 58.441406 l 4.4414,-5.33789 17.13672,23.482422 h 6.75781 l -20.45898,-27.589844 20.7207,-24.677735 h -6.83203 L 358.17969,50.302734 V 24.318359 Z m -75.9746,4.25586 c 2.83733,0 5.48912,0.571908 7.95312,1.716797 2.48889,1.144888 4.66654,2.726188 6.5332,4.742187 1.89156,1.99111 3.37118,4.317359 4.44141,6.980469 1.07022,2.638221 1.60547,5.450835 1.60547,8.4375 0,2.961776 -0.53525,5.76217 -1.60547,8.40039 -1.04533,2.638222 -2.51274,4.966424 -4.4043,6.982422 -1.86666,2.015999 -4.04432,3.607567 -6.5332,4.777344 -2.464,1.144888 -5.12802,1.71875 -7.99023,1.71875 -2.83733,0 -5.49939,-0.561641 -7.98829,-1.68164 -2.46399,-1.144889 -4.64164,-2.724236 -6.5332,-4.740235 -1.86666,-2.015999 -3.33603,-4.344201 -4.40625,-6.982422 -1.07022,-2.63822 -1.60547,-5.463055 -1.60547,-8.474609 0,-2.961776 0.52303,-5.760216 1.56836,-8.398438 1.07022,-2.63822 2.53763,-4.966423 4.4043,-6.982422 1.89156,-2.015999 4.07116,-3.595346 6.53515,-4.740234 2.48889,-1.169777 5.16317,-1.755859 8.0254,-1.755859 z m 38.5664,0.410156 h 12.0586 c 1.84177,0 3.52083,0.461924 5.03906,1.382813 1.54311,0.895999 2.7622,2.127313 3.6582,3.695312 0.92089,1.54311 1.38281,3.297451 1.38281,5.263672 0,1.966221 -0.46192,3.732781 -1.38281,5.300781 -0.896,1.54311 -2.11509,2.776377 -3.6582,3.697266 -1.51823,0.896 -3.19729,1.34375 -5.03906,1.34375 h -12.0586 z M 77.757812,31.044922 h 9.386719 c 2.673774,0 5.177324,0.511157 7.509766,1.535156 2.332441,0.995554 4.395503,2.389643 6.187503,4.181641 1.792,1.791997 3.19865,3.853106 4.22265,6.185547 1.024,2.332441 1.53711,4.850516 1.53711,7.552734 0,2.702219 -0.51311,5.232864 -1.53711,7.59375 -1.024,2.332441 -2.43065,4.395502 -4.22265,6.1875 -1.792,1.763553 -3.869586,3.157642 -6.230472,4.181641 -2.332441,0.995554 -4.821467,1.492187 -7.466797,1.492187 h -9.386719 z m 68.353518,3.710937 9.00195,24.619141 h -17.96289 z" />
  </g>
  <g
     id="g13"
     style="display:none">
    <path
       id="text12"
       style="font-weight:bold;font-size:85.3333px;font-family:Urbanist;-inkscape-font-specification:'Urbanist Bold';letter-spacing:0px;fill:#fafafa"
       d="m 10.515625,20.632812 v 10.41211 H 44.777344 L 10.515625,69.955078 v 10.41211 H 58.814453 V 69.955078 H 24.552734 L 58.814453,31.044922 v -10.41211 z m 56.832031,0 v 59.734376 h 19.796875 c 4.124439,-10e-7 7.978506,-0.76869 11.5625,-2.304688 3.612439,-1.564442 6.784959,-3.712696 9.515629,-6.443359 2.75911,-2.759108 4.90541,-5.929678 6.4414,-9.513672 1.56445,-3.61244 2.34766,-7.48103 2.34766,-11.605469 0,-4.124439 -0.78321,-7.978505 -2.34766,-11.5625 -1.53599,-3.612439 -3.68229,-6.784962 -6.4414,-9.515625 -2.73067,-2.759107 -5.90319,-4.905408 -9.515629,-6.441406 -3.583994,-1.564443 -7.438061,-2.347656 -11.5625,-2.347657 z m 72.789064,0 -21.67383,59.734376 h 11.05078 l 3.83985,-10.582032 h 25.5996 l 3.83985,10.582032 h 11.05078 l -21.7168,-59.734376 z m 136.8418,2.714844 c -3.53423,0 -6.85569,0.710241 -9.9668,2.128906 -3.11111,1.393778 -5.85041,3.335332 -8.21484,5.824219 -2.36445,2.488888 -4.21851,5.374824 -5.5625,8.660157 -1.344,3.260442 -2.01563,6.756903 -2.01563,10.490234 0,3.733331 0.67163,7.243965 2.01563,10.529297 1.34399,3.260442 3.19805,6.134159 5.5625,8.623047 2.36443,2.488888 5.10373,4.442662 8.21484,5.861328 3.11111,1.393776 6.43257,2.091797 9.9668,2.091797 3.55911,0 6.89474,-0.698021 10.00586,-2.091797 3.11111,-1.418666 5.84845,-3.37244 8.21289,-5.861328 2.36444,-2.488888 4.20627,-5.362605 5.52539,-8.623047 1.34399,-3.285332 2.01562,-6.795966 2.01562,-10.529297 0,-3.733331 -0.67163,-7.229792 -2.01562,-10.490234 -1.31912,-3.285333 -3.16095,-6.171269 -5.52539,-8.660157 -2.36444,-2.488887 -5.10178,-4.430441 -8.21289,-5.824219 -3.11112,-1.418665 -6.44675,-2.128906 -10.00586,-2.128906 z m 133.54101,0.1875 c -3.31022,0 -6.39559,0.60857 -9.25781,1.828125 -2.83733,1.219556 -5.12692,2.937234 -6.86914,5.152344 -1.74223,2.21511 -2.61328,4.828289 -2.61328,7.839844 0,3.210665 0.82022,5.799403 2.46289,7.765625 1.64266,1.941332 3.87115,3.447356 6.68359,4.517578 2.83734,1.070221 6.03465,1.91684 9.59375,2.539062 2.26489,0.398223 4.43032,0.970131 6.49609,1.716797 2.09067,0.721778 3.79613,1.716996 5.11524,2.986328 1.3191,1.269333 1.97852,2.887295 1.97852,4.853516 -10e-6,1.941332 -0.63497,3.63457 -1.9043,5.078125 -1.26933,1.418666 -2.93618,2.525822 -5.00196,3.322266 -2.06577,0.796443 -4.29425,1.195312 -6.68359,1.195312 -2.04088,0 -4.04355,-0.299152 -6.00976,-0.896484 -1.94134,-0.597334 -3.6468,-1.443953 -5.11524,-2.539063 -1.44356,-1.119999 -2.43877,-2.45103 -2.98633,-3.99414 l -4.89062,1.828125 c 0.79644,2.239999 2.16609,4.169332 4.10742,5.787109 1.94133,1.617777 4.20648,2.863265 6.79492,3.734375 2.61333,0.87111 5.31206,1.306641 8.09961,1.306641 3.36,0 6.45955,-0.610524 9.29688,-1.830079 2.86221,-1.219554 5.16402,-2.937233 6.90625,-5.152343 1.74221,-2.239999 2.61328,-4.853179 2.61328,-7.839844 0,-2.936888 -0.87107,-5.401468 -2.61328,-7.392578 -1.74223,-2.015999 -4.04404,-3.619787 -6.90625,-4.814453 -2.86223,-1.219555 -5.96177,-2.117009 -9.29688,-2.689453 -2.56355,-0.472889 -4.86536,-1.008136 -6.90625,-1.605469 -2.04088,-0.597334 -3.65885,-1.492834 -4.85351,-2.6875 -1.16978,-1.219555 -1.75391,-2.949455 -1.75391,-5.189453 0,-1.916444 0.63496,-3.583287 1.9043,-5.001953 1.26933,-1.443555 2.92395,-2.562932 4.96484,-3.359375 2.06578,-0.821331 4.28009,-1.2202 6.64453,-1.195313 2.06578,0 4.07039,0.299152 6.01172,0.896484 1.94134,0.572445 3.63457,1.41711 5.07813,2.53711 1.46844,1.09511 2.47588,2.428094 3.02343,3.996094 l 4.96485,-1.792969 c -0.87112,-2.339554 -2.30186,-4.31777 -4.29297,-5.935547 -1.96622,-1.617777 -4.24359,-2.849091 -6.83203,-3.695312 -2.58845,-0.846222 -5.24024,-1.269532 -7.95313,-1.269532 z m -222.54297,0.783203 13.36524,52.267579 h 6.12304 l 10.26563,-40.134766 10.26758,40.134766 h 6.19726 l 13.29102,-52.267579 h -5.37695 L 231.0957,67.587891 220.04492,24.318359 h -4.6289 L 204.40234,67.587891 193.35156,24.318359 Z m 122.3418,0 v 52.267579 h 5.22656 V 54.894531 h 9.55664 l 12.58203,21.691407 h 6.04688 L 330.96289,54.484375 c 2.26489,-0.448 4.29394,-1.357675 6.08594,-2.726563 1.81689,-1.368888 3.24763,-3.098787 4.29297,-5.189453 1.04533,-2.090666 1.56836,-4.416914 1.56836,-6.980468 0,-2.862221 -0.65941,-5.438739 -1.97852,-7.728516 -1.3191,-2.314665 -3.09984,-4.144282 -5.33984,-5.488281 -2.24,-1.368888 -4.75347,-2.052735 -7.54102,-2.052735 z m 42.63476,0 v 52.267579 h 5.22657 V 58.441406 l 4.4414,-5.33789 17.13672,23.482422 h 6.75781 l -20.45898,-27.589844 20.7207,-24.677735 h -6.83203 L 358.17969,50.302734 V 24.318359 Z m -75.9746,4.25586 c 2.83733,0 5.48912,0.571908 7.95312,1.716797 2.48889,1.144888 4.66654,2.726188 6.5332,4.742187 1.89156,1.99111 3.37118,4.317359 4.44141,6.980469 1.07022,2.638221 1.60547,5.450835 1.60547,8.4375 0,2.961776 -0.53525,5.76217 -1.60547,8.40039 -1.04533,2.638222 -2.51274,4.966424 -4.4043,6.982422 -1.86666,2.015999 -4.04432,3.607567 -6.5332,4.777344 -2.464,1.144888 -5.12802,1.71875 -7.99023,1.71875 -2.83733,0 -5.49939,-0.561641 -7.98829,-1.68164 -2.46399,-1.144889 -4.64164,-2.724236 -6.5332,-4.740235 -1.86666,-2.015999 -3.33603,-4.344201 -4.40625,-6.982422 -1.07022,-2.63822 -1.60547,-5.463055 -1.60547,-8.474609 0,-2.961776 0.52303,-5.760216 1.56836,-8.398438 1.07022,-2.63822 2.53763,-4.966423 4.4043,-6.982422 1.89156,-2.015999 4.07116,-3.595346 6.53515,-4.740234 2.48889,-1.169777 5.16317,-1.755859 8.0254,-1.755859 z m 38.5664,0.410156 h 12.0586 c 1.84177,0 3.52083,0.461924 5.03906,1.382813 1.54311,0.895999 2.7622,2.127313 3.6582,3.695312 0.92089,1.54311 1.38281,3.297451 1.38281,5.263672 0,1.966221 -0.46192,3.732781 -1.38281,5.300781 -0.896,1.54311 -2.11509,2.776377 -3.6582,3.697266 -1.51823,0.896 -3.19729,1.34375 -5.03906,1.34375 h -12.0586 z M 77.757812,31.044922 h 9.386719 c 2.673774,0 5.177324,0.511157 7.509766,1.535156 2.332441,0.995554 4.395503,2.389643 6.187503,4.181641 1.792,1.791997 3.19865,3.853106 4.22265,6.185547 1.024,2.332441 1.53711,4.850516 1.53711,7.552734 0,2.702219 -0.51311,5.232864 -1.53711,7.59375 -1.024,2.332441 -2.43065,4.395502 -4.22265,6.1875 -1.792,1.763553 -3.869586,3.157642 -6.230472,4.181641 -2.332441,0.995554 -4.821467,1.492187 -7.466797,1.492187 h -9.386719 z m 68.353518,3.710937 9.00195,24.619141 h -17.96289 z" />
  </g>
  <g
     id="layer4"
     style="display:inline">
    <path
       id="path25"
       style="font-weight:bold;font-size:85.3333px;font-family:Urbanist;-inkscape-font-specification:'Urbanist Bold';letter-spacing:0px;display:inline;fill:#29242a"
       d="m 10.515625,20.632812 v 10.41211 h 34.261719 14.037109 v -10.41211 z m 56.832031,0 v 10.41211 h 10.410156 9.386719 22.566409 c -0.48093,-0.551794 -0.96303,-1.10321 -1.48828,-1.623047 -2.73067,-2.759104 -5.90319,-4.90541 -9.515629,-6.441406 -3.58399,-1.564442 -7.438065,-2.347656 -11.5625,-2.347657 z m 72.789064,0 -3.77734,10.41211 h 19.55273 l -3.78516,-10.41211 z m 136.8418,2.714844 c -3.53423,0 -6.85569,0.710243 -9.9668,2.128906 -3.11111,1.393777 -5.85042,3.335335 -8.21484,5.824219 -2.36445,2.488886 -4.21852,5.374827 -5.5625,8.660157 -1.344,3.260438 -2.01563,6.756907 -2.01563,10.490234 0,2.82691 0.38955,5.525661 1.16016,8.095703 h 5.53906 c -0.97186,-2.530802 -1.47266,-5.22588 -1.47266,-8.095703 0,-2.961773 0.52303,-5.760218 1.56836,-8.398438 1.07022,-2.638217 2.53763,-4.966425 4.4043,-6.982422 1.89156,-2.015996 4.07117,-3.595347 6.53515,-4.740234 2.48889,-1.169776 5.16317,-1.755859 8.0254,-1.755859 2.83732,0 5.48912,0.571909 7.95312,1.716797 2.48889,1.144886 4.66655,2.72619 6.5332,4.742187 1.89156,1.991108 3.37118,4.317362 4.44141,6.980469 1.07022,2.638218 1.60547,5.450838 1.60547,8.4375 0,2.849327 -0.50755,5.54583 -1.49805,8.095703 h 5.56641 c 0.7706,-2.570037 1.1582,-5.268799 1.1582,-8.095703 0,-3.733327 -0.67164,-7.229796 -2.01562,-10.490234 -1.31912,-3.28533 -3.16096,-6.171271 -5.52539,-8.660157 -2.36444,-2.488884 -5.10179,-4.430442 -8.21289,-5.824219 -3.11112,-1.418663 -6.44676,-2.128906 -10.00586,-2.128906 z m 133.54101,0.1875 c -3.31022,0 -6.39559,0.608571 -9.25781,1.828125 -2.83733,1.219555 -5.12692,2.937236 -6.86914,5.152344 -1.74223,2.215108 -2.61328,4.828292 -2.61328,7.839844 0,3.210662 0.82022,5.799405 2.46289,7.765625 1.64266,1.94133 3.87115,3.447357 6.68359,4.517578 2.83734,1.07022 6.03465,1.916841 9.59375,2.539062 2.26489,0.398223 4.43033,0.970132 6.49609,1.716797 2.09067,0.721778 3.79613,1.716998 5.11524,2.986328 0.21586,0.207714 0.38587,0.439641 0.56641,0.666016 h 5.92382 c -0.4349,-1.175458 -1.06108,-2.248097 -1.89843,-3.205078 -1.74223,-2.015997 -4.04405,-3.619788 -6.90625,-4.814453 -2.86223,-1.219554 -5.96177,-2.11701 -9.29688,-2.689453 -2.56355,-0.472889 -4.86536,-1.008137 -6.90625,-1.605469 -2.04088,-0.597334 -3.65886,-1.492835 -4.85351,-2.6875 -1.16978,-1.219554 -1.75391,-2.949457 -1.75391,-5.189453 0,-1.916442 0.63496,-3.583289 1.9043,-5.001953 1.26932,-1.443554 2.92395,-2.562933 4.96484,-3.359375 2.06578,-0.821331 4.28009,-1.2202 6.64453,-1.195313 2.06578,0 4.07039,0.299153 6.01172,0.896484 1.94134,0.572445 3.63457,1.417111 5.07813,2.53711 1.46843,1.095109 2.47588,2.428095 3.02343,3.996094 l 4.96485,-1.792969 C 428.72654,32.095995 427.2958,30.117775 425.30469,28.5 c -1.96622,-1.617775 -4.2436,-2.849092 -6.83203,-3.695312 -2.58845,-0.846222 -5.24024,-1.269532 -7.95313,-1.269532 z m -222.54297,0.783203 8.75196,34.228516 h 5.36523 l -8.74219,-34.228516 z m 27.43946,0 -8.7129,34.228516 h 5.375 l 5.65235,-22.095703 5.65234,22.095703 h 5.4043 l -8.74219,-34.228516 z m 26.69336,0 -8.7129,34.228516 h 5.38672 l 8.70313,-34.228516 z m 68.20898,0 v 34.228516 h 5.22656 v -3.652344 h 9.55664 l 2.11914,3.652344 h 6.08985 l -2.34766,-4.0625 c 2.26489,-0.448 4.29394,-1.357676 6.08594,-2.726563 1.81689,-1.368886 3.24763,-3.098789 4.29297,-5.189453 1.04533,-2.090664 1.56836,-4.416917 1.56836,-6.980468 0,-2.862219 -0.65941,-5.438741 -1.97852,-7.728516 -1.3191,-2.314663 -3.09985,-4.144284 -5.33984,-5.488281 -2.24,-1.368887 -4.75347,-2.052735 -7.54102,-2.052735 z m 42.63476,0 v 34.228516 h 5.22657 v -0.105469 l 4.4414,-5.33789 3.97266,5.443359 h 6.54492 l -7.08203,-9.550781 20.7207,-24.677735 h -6.83203 L 358.17969,50.302734 V 24.318359 Z m -37.4082,4.666016 h 12.0586 c 1.84176,0 3.52083,0.461924 5.03906,1.382813 1.54311,0.895998 2.7622,2.127315 3.6582,3.695312 0.92089,1.543108 1.38281,3.297453 1.38281,5.263672 0,1.966219 -0.46192,3.732783 -1.38281,5.300781 -0.896,1.543109 -2.11509,2.776378 -3.6582,3.697266 -1.51823,0.895999 -3.1973,1.34375 -5.03906,1.34375 h -12.0586 z M 38.820312,37.810547 10.515625,69.955078 v 10.41211 H 58.814453 V 69.955078 H 24.552734 L 52.857422,37.810547 Z m 28.527344,0 v 42.556641 h 19.796875 c 4.124435,-10e-7 7.97851,-0.768692 11.5625,-2.304688 3.612439,-1.56444 6.784959,-3.712699 9.515629,-6.443359 2.7591,-2.759106 4.90541,-5.929682 6.4414,-9.513672 1.56445,-3.612437 2.34766,-7.481034 2.34766,-11.605469 0,-4.124435 -0.78321,-7.978509 -2.34766,-11.5625 -0.16473,-0.387433 -0.36416,-0.749663 -0.54297,-1.126953 h -12.32226 c 1.33765,1.537468 2.43423,3.242993 3.26562,5.136719 1.024,2.332438 1.53711,4.850519 1.53711,7.552734 0,2.702216 -0.51311,5.232866 -1.53711,7.59375 -1.024,2.332439 -2.43065,4.395504 -4.22265,6.1875 -1.792001,1.763551 -3.869588,3.157643 -6.230472,4.181641 -2.332439,0.995553 -4.821469,1.492187 -7.466797,1.492187 H 77.757812 V 37.810547 Z m 66.556644,0 -15.44141,42.556641 h 11.05078 l 3.83985,-10.582032 h 25.5996 l 3.83985,10.582032 h 11.05078 L 158.37109,37.810547 H 147.22852 L 155.11328,59.375 H 137.15039 L 145,37.810547 Z m 65.10156,29.642578 2.33594,9.132813 h 6.12304 l 2.33594,-9.132813 h -5.36328 l -0.0352,0.134766 -0.0352,-0.134766 z m 26.65625,0 2.33594,9.132813 h 6.19726 l 2.32227,-9.132813 h -5.38672 l -0.0352,0.134766 -0.0351,-0.134766 z m 31.30664,0 c 0.57362,0.743716 1.17715,1.465157 1.82813,2.150391 2.36442,2.488885 5.10373,4.442663 8.21484,5.861328 3.11111,1.393774 6.43257,2.091797 9.9668,2.091797 3.5591,0 6.89474,-0.698023 10.00586,-2.091797 3.1111,-1.418665 5.84845,-3.372443 8.21289,-5.861328 0.65106,-0.685346 1.25435,-1.406544 1.82617,-2.150391 h -7.21289 c -1.45847,1.26455 -3.0669,2.324002 -4.8418,3.158203 -2.464,1.144887 -5.12803,1.71875 -7.99023,1.71875 -2.83733,0 -5.49939,-0.561643 -7.98829,-1.68164 -1.79177,-0.832549 -3.42889,-1.902122 -4.91796,-3.195313 z m 53.34961,0 v 9.132813 h 5.22656 v -9.132813 z m 22.06836,0 5.29687,9.132813 h 6.04688 l -5.27539,-9.132813 z m 20.5664,0 v 9.132813 h 5.22657 v -9.132813 z m 20.14063,0 6.66406,9.132813 h 6.75781 l -6.77148,-9.132813 z m 18.73828,0 c 0.82107,1.928339 2.06828,3.625258 3.79297,5.0625 1.94133,1.617775 4.20648,2.863266 6.79492,3.734375 2.61333,0.871109 5.31206,1.306641 8.09961,1.306641 3.36,0 6.45955,-0.610525 9.29688,-1.830079 2.8622,-1.219552 5.16402,-2.937235 6.90625,-5.152343 0.75167,-0.96644 1.30896,-2.015665 1.73632,-3.121094 h -5.98828 c -0.0929,0.117924 -0.1647,0.244598 -0.26562,0.359375 -1.26933,1.418665 -2.93618,2.525822 -5.00196,3.322266 -2.06576,0.796442 -4.29425,1.195312 -6.68359,1.195312 -2.04088,0 -4.04356,-0.299153 -6.00976,-0.896484 -1.94134,-0.597334 -3.6468,-1.443954 -5.11524,-2.539063 -0.57247,-0.444154 -1.05282,-0.930711 -1.48437,-1.441406 z" />
  </g>
  <g
     id="layer5"
     style="display:none">
    <path
       id="path26"
       style="font-weight:bold;font-size:85.3333px;font-family:Urbanist;-inkscape-font-specification:'Urbanist Bold';letter-spacing:0px;display:inline;fill:#fafafa"
       d="m 10.515625,20.632812 v 10.41211 h 34.261719 14.037109 v -10.41211 z m 56.832031,0 v 10.41211 h 10.410156 9.386719 22.566409 c -0.48093,-0.551794 -0.96303,-1.10321 -1.48828,-1.623047 -2.73067,-2.759104 -5.90319,-4.90541 -9.515629,-6.441406 -3.58399,-1.564442 -7.438065,-2.347656 -11.5625,-2.347657 z m 72.789064,0 -3.77734,10.41211 h 19.55273 l -3.78516,-10.41211 z m 136.8418,2.714844 c -3.53423,0 -6.85569,0.710243 -9.9668,2.128906 -3.11111,1.393777 -5.85042,3.335335 -8.21484,5.824219 -2.36445,2.488886 -4.21852,5.374827 -5.5625,8.660157 -1.344,3.260438 -2.01563,6.756907 -2.01563,10.490234 0,2.82691 0.38955,5.525661 1.16016,8.095703 h 5.53906 c -0.97186,-2.530802 -1.47266,-5.22588 -1.47266,-8.095703 0,-2.961773 0.52303,-5.760218 1.56836,-8.398438 1.07022,-2.638217 2.53763,-4.966425 4.4043,-6.982422 1.89156,-2.015996 4.07117,-3.595347 6.53515,-4.740234 2.48889,-1.169776 5.16317,-1.755859 8.0254,-1.755859 2.83732,0 5.48912,0.571909 7.95312,1.716797 2.48889,1.144886 4.66655,2.72619 6.5332,4.742187 1.89156,1.991108 3.37118,4.317362 4.44141,6.980469 1.07022,2.638218 1.60547,5.450838 1.60547,8.4375 0,2.849327 -0.50755,5.54583 -1.49805,8.095703 h 5.56641 c 0.7706,-2.570037 1.1582,-5.268799 1.1582,-8.095703 0,-3.733327 -0.67164,-7.229796 -2.01562,-10.490234 -1.31912,-3.28533 -3.16096,-6.171271 -5.52539,-8.660157 -2.36444,-2.488884 -5.10179,-4.430442 -8.21289,-5.824219 -3.11112,-1.418663 -6.44676,-2.128906 -10.00586,-2.128906 z m 133.54101,0.1875 c -3.31022,0 -6.39559,0.608571 -9.25781,1.828125 -2.83733,1.219555 -5.12692,2.937236 -6.86914,5.152344 -1.74223,2.215108 -2.61328,4.828292 -2.61328,7.839844 0,3.210662 0.82022,5.799405 2.46289,7.765625 1.64266,1.94133 3.87115,3.447357 6.68359,4.517578 2.83734,1.07022 6.03465,1.916841 9.59375,2.539062 2.26489,0.398223 4.43033,0.970132 6.49609,1.716797 2.09067,0.721778 3.79613,1.716998 5.11524,2.986328 0.21586,0.207714 0.38587,0.439641 0.56641,0.666016 h 5.92382 c -0.4349,-1.175458 -1.06108,-2.248097 -1.89843,-3.205078 -1.74223,-2.015997 -4.04405,-3.619788 -6.90625,-4.814453 -2.86223,-1.219554 -5.96177,-2.11701 -9.29688,-2.689453 -2.56355,-0.472889 -4.86536,-1.008137 -6.90625,-1.605469 -2.04088,-0.597334 -3.65886,-1.492835 -4.85351,-2.6875 -1.16978,-1.219554 -1.75391,-2.949457 -1.75391,-5.189453 0,-1.916442 0.63496,-3.583289 1.9043,-5.001953 1.26932,-1.443554 2.92395,-2.562933 4.96484,-3.359375 2.06578,-0.821331 4.28009,-1.2202 6.64453,-1.195313 2.06578,0 4.07039,0.299153 6.01172,0.896484 1.94134,0.572445 3.63457,1.417111 5.07813,2.53711 1.46843,1.095109 2.47588,2.428095 3.02343,3.996094 l 4.96485,-1.792969 C 428.72654,32.095995 427.2958,30.117775 425.30469,28.5 c -1.96622,-1.617775 -4.2436,-2.849092 -6.83203,-3.695312 -2.58845,-0.846222 -5.24024,-1.269532 -7.95313,-1.269532 z m -222.54297,0.783203 8.75196,34.228516 h 5.36523 l -8.74219,-34.228516 z m 27.43946,0 -8.7129,34.228516 h 5.375 l 5.65235,-22.095703 5.65234,22.095703 h 5.4043 l -8.74219,-34.228516 z m 26.69336,0 -8.7129,34.228516 h 5.38672 l 8.70313,-34.228516 z m 68.20898,0 v 34.228516 h 5.22656 v -3.652344 h 9.55664 l 2.11914,3.652344 h 6.08985 l -2.34766,-4.0625 c 2.26489,-0.448 4.29394,-1.357676 6.08594,-2.726563 1.81689,-1.368886 3.24763,-3.098789 4.29297,-5.189453 1.04533,-2.090664 1.56836,-4.416917 1.56836,-6.980468 0,-2.862219 -0.65941,-5.438741 -1.97852,-7.728516 -1.3191,-2.314663 -3.09985,-4.144284 -5.33984,-5.488281 -2.24,-1.368887 -4.75347,-2.052735 -7.54102,-2.052735 z m 42.63476,0 v 34.228516 h 5.22657 v -0.105469 l 4.4414,-5.33789 3.97266,5.443359 h 6.54492 l -7.08203,-9.550781 20.7207,-24.677735 h -6.83203 L 358.17969,50.302734 V 24.318359 Z m -37.4082,4.666016 h 12.0586 c 1.84176,0 3.52083,0.461924 5.03906,1.382813 1.54311,0.895998 2.7622,2.127315 3.6582,3.695312 0.92089,1.543108 1.38281,3.297453 1.38281,5.263672 0,1.966219 -0.46192,3.732783 -1.38281,5.300781 -0.896,1.543109 -2.11509,2.776378 -3.6582,3.697266 -1.51823,0.895999 -3.1973,1.34375 -5.03906,1.34375 h -12.0586 z M 38.820312,37.810547 10.515625,69.955078 v 10.41211 H 58.814453 V 69.955078 H 24.552734 L 52.857422,37.810547 Z m 28.527344,0 v 42.556641 h 19.796875 c 4.124435,-10e-7 7.97851,-0.768692 11.5625,-2.304688 3.612439,-1.56444 6.784959,-3.712699 9.515629,-6.443359 2.7591,-2.759106 4.90541,-5.929682 6.4414,-9.513672 1.56445,-3.612437 2.34766,-7.481034 2.34766,-11.605469 0,-4.124435 -0.78321,-7.978509 -2.34766,-11.5625 -0.16473,-0.387433 -0.36416,-0.749663 -0.54297,-1.126953 h -12.32226 c 1.33765,1.537468 2.43423,3.242993 3.26562,5.136719 1.024,2.332438 1.53711,4.850519 1.53711,7.552734 0,2.702216 -0.51311,5.232866 -1.53711,7.59375 -1.024,2.332439 -2.43065,4.395504 -4.22265,6.1875 -1.792001,1.763551 -3.869588,3.157643 -6.230472,4.181641 -2.332439,0.995553 -4.821469,1.492187 -7.466797,1.492187 H 77.757812 V 37.810547 Z m 66.556644,0 -15.44141,42.556641 h 11.05078 l 3.83985,-10.582032 h 25.5996 l 3.83985,10.582032 h 11.05078 L 158.37109,37.810547 H 147.22852 L 155.11328,59.375 H 137.15039 L 145,37.810547 Z m 65.10156,29.642578 2.33594,9.132813 h 6.12304 l 2.33594,-9.132813 h -5.36328 l -0.0352,0.134766 -0.0352,-0.134766 z m 26.65625,0 2.33594,9.132813 h 6.19726 l 2.32227,-9.132813 h -5.38672 l -0.0352,0.134766 -0.0351,-0.134766 z m 31.30664,0 c 0.57362,0.743716 1.17715,1.465157 1.82813,2.150391 2.36442,2.488885 5.10373,4.442663 8.21484,5.861328 3.11111,1.393774 6.43257,2.091797 9.9668,2.091797 3.5591,0 6.89474,-0.698023 10.00586,-2.091797 3.1111,-1.418665 5.84845,-3.372443 8.21289,-5.861328 0.65106,-0.685346 1.25435,-1.406544 1.82617,-2.150391 h -7.21289 c -1.45847,1.26455 -3.0669,2.324002 -4.8418,3.158203 -2.464,1.144887 -5.12803,1.71875 -7.99023,1.71875 -2.83733,0 -5.49939,-0.561643 -7.98829,-1.68164 -1.79177,-0.832549 -3.42889,-1.902122 -4.91796,-3.195313 z m 53.34961,0 v 9.132813 h 5.22656 v -9.132813 z m 22.06836,0 5.29687,9.132813 h 6.04688 l -5.27539,-9.132813 z m 20.5664,0 v 9.132813 h 5.22657 v -9.132813 z m 20.14063,0 6.66406,9.132813 h 6.75781 l -6.77148,-9.132813 z m 18.73828,0 c 0.82107,1.928339 2.06828,3.625258 3.79297,5.0625 1.94133,1.617775 4.20648,2.863266 6.79492,3.734375 2.61333,0.871109 5.31206,1.306641 8.09961,1.306641 3.36,0 6.45955,-0.610525 9.29688,-1.830079 2.8622,-1.219552 5.16402,-2.937235 6.90625,-5.152343 0.75167,-0.96644 1.30896,-2.015665 1.73632,-3.121094 h -5.98828 c -0.0929,0.117924 -0.1647,0.244598 -0.26562,0.359375 -1.26933,1.418665 -2.93618,2.525822 -5.00196,3.322266 -2.06576,0.796442 -4.29425,1.195312 -6.68359,1.195312 -2.04088,0 -4.04356,-0.299153 -6.00976,-0.896484 -1.94134,-0.597334 -3.6468,-1.443954 -5.11524,-2.539063 -0.57247,-0.444154 -1.05282,-0.930711 -1.48437,-1.441406 z" />
  </g>
  <g
     id="g14"
     style="display:none">
    <path
       id="text13"
       style="font-weight:bold;font-size:85.3333px;font-family:Urbanist;-inkscape-font-specification:'Urbanist Bold';letter-spacing:0px;fill:#a1affa;fill-opacity:0.941176"
       d="m 10.515625,20.632812 v 10.41211 H 44.777344 L 10.515625,69.955078 v 10.41211 H 58.814453 V 69.955078 H 24.552734 L 58.814453,31.044922 v -10.41211 z m 56.832031,0 v 59.734376 h 19.796875 c 4.124439,-10e-7 7.978506,-0.76869 11.5625,-2.304688 3.612439,-1.564442 6.784959,-3.712696 9.515629,-6.443359 2.75911,-2.759108 4.90541,-5.929678 6.4414,-9.513672 1.56445,-3.61244 2.34766,-7.48103 2.34766,-11.605469 0,-4.124439 -0.78321,-7.978505 -2.34766,-11.5625 -1.53599,-3.612439 -3.68229,-6.784962 -6.4414,-9.515625 -2.73067,-2.759107 -5.90319,-4.905408 -9.515629,-6.441406 -3.583994,-1.564443 -7.438061,-2.347656 -11.5625,-2.347657 z m 72.789064,0 -21.67383,59.734376 h 11.05078 l 3.83985,-10.582032 h 25.5996 l 3.83985,10.582032 h 11.05078 l -21.7168,-59.734376 z m 136.8418,2.714844 c -3.53423,0 -6.85569,0.710241 -9.9668,2.128906 -3.11111,1.393778 -5.85041,3.335332 -8.21484,5.824219 -2.36445,2.488888 -4.21851,5.374824 -5.5625,8.660157 -1.344,3.260442 -2.01563,6.756903 -2.01563,10.490234 0,3.733331 0.67163,7.243965 2.01563,10.529297 1.34399,3.260442 3.19805,6.134159 5.5625,8.623047 2.36443,2.488888 5.10373,4.442662 8.21484,5.861328 3.11111,1.393776 6.43257,2.091797 9.9668,2.091797 3.55911,0 6.89474,-0.698021 10.00586,-2.091797 3.11111,-1.418666 5.84845,-3.37244 8.21289,-5.861328 2.36444,-2.488888 4.20627,-5.362605 5.52539,-8.623047 1.34399,-3.285332 2.01562,-6.795966 2.01562,-10.529297 0,-3.733331 -0.67163,-7.229792 -2.01562,-10.490234 -1.31912,-3.285333 -3.16095,-6.171269 -5.52539,-8.660157 -2.36444,-2.488887 -5.10178,-4.430441 -8.21289,-5.824219 -3.11112,-1.418665 -6.44675,-2.128906 -10.00586,-2.128906 z m 133.54101,0.1875 c -3.31022,0 -6.39559,0.60857 -9.25781,1.828125 -2.83733,1.219556 -5.12692,2.937234 -6.86914,5.152344 -1.74223,2.21511 -2.61328,4.828289 -2.61328,7.839844 0,3.210665 0.82022,5.799403 2.46289,7.765625 1.64266,1.941332 3.87115,3.447356 6.68359,4.517578 2.83734,1.070221 6.03465,1.91684 9.59375,2.539062 2.26489,0.398223 4.43032,0.970131 6.49609,1.716797 2.09067,0.721778 3.79613,1.716996 5.11524,2.986328 1.3191,1.269333 1.97852,2.887295 1.97852,4.853516 -10e-6,1.941332 -0.63497,3.63457 -1.9043,5.078125 -1.26933,1.418666 -2.93618,2.525822 -5.00196,3.322266 -2.06577,0.796443 -4.29425,1.195312 -6.68359,1.195312 -2.04088,0 -4.04355,-0.299152 -6.00976,-0.896484 -1.94134,-0.597334 -3.6468,-1.443953 -5.11524,-2.539063 -1.44356,-1.119999 -2.43877,-2.45103 -2.98633,-3.99414 l -4.89062,1.828125 c 0.79644,2.239999 2.16609,4.169332 4.10742,5.787109 1.94133,1.617777 4.20648,2.863265 6.79492,3.734375 2.61333,0.87111 5.31206,1.306641 8.09961,1.306641 3.36,0 6.45955,-0.610524 9.29688,-1.830079 2.86221,-1.219554 5.16402,-2.937233 6.90625,-5.152343 1.74221,-2.239999 2.61328,-4.853179 2.61328,-7.839844 0,-2.936888 -0.87107,-5.401468 -2.61328,-7.392578 -1.74223,-2.015999 -4.04404,-3.619787 -6.90625,-4.814453 -2.86223,-1.219555 -5.96177,-2.117009 -9.29688,-2.689453 -2.56355,-0.472889 -4.86536,-1.008136 -6.90625,-1.605469 -2.04088,-0.597334 -3.65885,-1.492834 -4.85351,-2.6875 -1.16978,-1.219555 -1.75391,-2.949455 -1.75391,-5.189453 0,-1.916444 0.63496,-3.583287 1.9043,-5.001953 1.26933,-1.443555 2.92395,-2.562932 4.96484,-3.359375 2.06578,-0.821331 4.28009,-1.2202 6.64453,-1.195313 2.06578,0 4.07039,0.299152 6.01172,0.896484 1.94134,0.572445 3.63457,1.41711 5.07813,2.53711 1.46844,1.09511 2.47588,2.428094 3.02343,3.996094 l 4.96485,-1.792969 c -0.87112,-2.339554 -2.30186,-4.31777 -4.29297,-5.935547 -1.96622,-1.617777 -4.24359,-2.849091 -6.83203,-3.695312 -2.58845,-0.846222 -5.24024,-1.269532 -7.95313,-1.269532 z m -222.54297,0.783203 13.36524,52.267579 h 6.12304 l 10.26563,-40.134766 10.26758,40.134766 h 6.19726 l 13.29102,-52.267579 h -5.37695 L 231.0957,67.587891 220.04492,24.318359 h -4.6289 L 204.40234,67.587891 193.35156,24.318359 Z m 122.3418,0 v 52.267579 h 5.22656 V 54.894531 h 9.55664 l 12.58203,21.691407 h 6.04688 L 330.96289,54.484375 c 2.26489,-0.448 4.29394,-1.357675 6.08594,-2.726563 1.81689,-1.368888 3.24763,-3.098787 4.29297,-5.189453 1.04533,-2.090666 1.56836,-4.416914 1.56836,-6.980468 0,-2.862221 -0.65941,-5.438739 -1.97852,-7.728516 -1.3191,-2.314665 -3.09984,-4.144282 -5.33984,-5.488281 -2.24,-1.368888 -4.75347,-2.052735 -7.54102,-2.052735 z m 42.63476,0 v 52.267579 h 5.22657 V 58.441406 l 4.4414,-5.33789 17.13672,23.482422 h 6.75781 l -20.45898,-27.589844 20.7207,-24.677735 h -6.83203 L 358.17969,50.302734 V 24.318359 Z m -75.9746,4.25586 c 2.83733,0 5.48912,0.571908 7.95312,1.716797 2.48889,1.144888 4.66654,2.726188 6.5332,4.742187 1.89156,1.99111 3.37118,4.317359 4.44141,6.980469 1.07022,2.638221 1.60547,5.450835 1.60547,8.4375 0,2.961776 -0.53525,5.76217 -1.60547,8.40039 -1.04533,2.638222 -2.51274,4.966424 -4.4043,6.982422 -1.86666,2.015999 -4.04432,3.607567 -6.5332,4.777344 -2.464,1.144888 -5.12802,1.71875 -7.99023,1.71875 -2.83733,0 -5.49939,-0.561641 -7.98829,-1.68164 -2.46399,-1.144889 -4.64164,-2.724236 -6.5332,-4.740235 -1.86666,-2.015999 -3.33603,-4.344201 -4.40625,-6.982422 -1.07022,-2.63822 -1.60547,-5.463055 -1.60547,-8.474609 0,-2.961776 0.52303,-5.760216 1.56836,-8.398438 1.07022,-2.63822 2.53763,-4.966423 4.4043,-6.982422 1.89156,-2.015999 4.07116,-3.595346 6.53515,-4.740234 2.48889,-1.169777 5.16317,-1.755859 8.0254,-1.755859 z m 38.5664,0.410156 h 12.0586 c 1.84177,0 3.52083,0.461924 5.03906,1.382813 1.54311,0.895999 2.7622,2.127313 3.6582,3.695312 0.92089,1.54311 1.38281,3.297451 1.38281,5.263672 0,1.966221 -0.46192,3.732781 -1.38281,5.300781 -0.896,1.54311 -2.11509,2.776377 -3.6582,3.697266 -1.51823,0.896 -3.19729,1.34375 -5.03906,1.34375 h -12.0586 z M 77.757812,31.044922 h 9.386719 c 2.673774,0 5.177324,0.511157 7.509766,1.535156 2.332441,0.995554 4.395503,2.389643 6.187503,4.181641 1.792,1.791997 3.19865,3.853106 4.22265,6.185547 1.024,2.332441 1.53711,4.850516 1.53711,7.552734 0,2.702219 -0.51311,5.232864 -1.53711,7.59375 -1.024,2.332441 -2.43065,4.395502 -4.22265,6.1875 -1.792,1.763553 -3.869586,3.157642 -6.230472,4.181641 -2.332441,0.995554 -4.821467,1.492187 -7.466797,1.492187 h -9.386719 z m 68.353518,3.710937 9.00195,24.619141 h -17.96289 z" />
  </g>
  <g
     id="layer3"
     transform="translate(-124.5,-309.5)"
     style="display:none">
    <rect
       style="display:inline;fill:none;stroke:#fafafa;stroke-width:1;stroke-dasharray:none"
       id="rect86"
       width="440"
       height="100"
       x="125"
       y="310" />
  </g>
</svg>
