<?xml version="1.0" encoding="UTF-8" standalone="no"?>
<!-- Created with Inkscape (http://www.inkscape.org/) -->

<svg
   width="256"
   height="256"
   viewBox="0 0 256 256"
   version="1.1"
   id="svg1"
   xmlns="http://www.w3.org/2000/svg"
   xmlns:svg="http://www.w3.org/2000/svg"
   xmlns:rdf="http://www.w3.org/1999/02/22-rdf-syntax-ns#"
   xmlns:cc="http://creativecommons.org/ns#"
   xmlns:dc="http://purl.org/dc/elements/1.1/">
  <title
     id="title2">ZDA Works Letter Logo</title>
  <defs
     id="defs1">
    <clipPath
       clipPathUnits="userSpaceOnUse"
       id="clipPath40">
      <path
         id="lpe_path-effect41"
         style="fill:#29242a;fill-opacity:1;stroke:none;stroke-width:17;stroke-dasharray:none;stroke-opacity:1"
         class="powerclip"
         d="m -2.5,-2.5 h 260 v 260 H -2.5 Z M 0,115 v 25.36069 H 256.5 V 115 Z" />
    </clipPath>
    <clipPath
       clipPathUnits="userSpaceOnUse"
       id="clipPath9">
      <path
         id="lpe_path-effect9"
         style="display:inline;fill:#29242a;fill-opacity:1;stroke:#29242a;stroke-width:1;stroke-dasharray:none;stroke-opacity:1"
         class="powerclip"
         d="m -2.5,-2.5 h 260 v 260 H -2.5 Z M 2,115.64645 V 139 h 251 v -23.35355 z" />
    </clipPath>
  </defs>
  <g
     id="g43"
     style="display:inline">
    <path
       id="path43"
       style="font-weight:600;font-size:226.667px;font-family:Urbanist;-inkscape-font-specification:'Urbanist Semi-Bold';letter-spacing:0px;display:inline;fill:#29242a;fill-opacity:1;stroke:#29242a;stroke-opacity:1"
       d="M 63.353516,48.166016 V 71.740234 H 159.91406 L 122.45703,115 h 31.73242 L 191.64648,71.740234 V 48.166016 Z m 37.625004,91.640624 -37.625004,43.45313 v 23.57421 H 191.64648 V 183.25977 H 95.085938 l 37.625002,-43.45313 z" />
  </g>
  <g
     id="g45"
     style="display:inline">
    <path
       id="path8"
       style="display:inline;fill:none;stroke:#29242a;stroke-width:15"
       d="M 245,127.5 A 117.5,117.5 0 0 1 127.5,245 117.5,117.5 0 0 1 10,127.5 117.5,117.5 0 0 1 127.5,10 117.5,117.5 0 0 1 245,127.5 Z"
       clip-path="url(#clipPath9)" />
  </g>
  <metadata
     id="metadata2">
    <rdf:RDF>
      <cc:Work
         rdf:about="">
        <dc:title>ZDA Works Letter Logo</dc:title>
      </cc:Work>
    </rdf:RDF>
  </metadata>
</svg>
